<svg xmlns="http://www.w3.org/2000/svg"  viewBox="0 0 512 512" width="48px" height="48px"><path fill="#FEBF10" d="M120.2 69.2c-2-1.1-3.8-2.4-5.5-3.8-.6 4.7-.1 9.8.5 14.8 2.5-1.6 5.1-2.9 7.3-4.1 1.7-.9 3.8-2 6-3.1C125.9 71.4 122.7 70.5 120.2 69.2zM263.7 73.8c-3 .5-6 1-8.9 1.9-1.3.4-2.6.8-3.8 1.4-.3.7-.8 1.4-1.4 1.8 1.8 2.5 3.5 5.1 5 7.9 1.8 3.1 3.5 6.6 5.8 9.4 3.5-4.2 6.5-8.9 9-13.7 1.6-2.9 3.7-6.5 4.7-10.1C270.7 72.7 267.2 73.2 263.7 73.8zM44.6 129.9c3.5 3.6 8.7 6.6 12.8 8.1 2.4.9 5 1.8 7.3 3.2.5-3 .8-6.5 1.4-8.9.7-2.8 1.4-5.6 2.5-8.3C60.7 124.5 50.9 125.4 44.6 129.9zM200.3 53.6c-.4-2.7-1-5.3-1.5-7.9-2.9 2.3-5.9 4.4-8.6 7-2.1 2-4.4 3.6-6.6 5.4-.7.6-2 1.5-3 2.4 7.3.5 14.3 2.2 21.5 3.6C201.1 60.7 200.8 57.2 200.3 53.6zM56.7 207.3c-.3.6-.5 1.2-.7 1.8-1.1 3.2-1.9 6.5-2.6 9.8-.7 3-1.2 6.1-1.8 9.1 5.1-1.6 10-3.8 15.2-5.2C64.8 217 59.9 212.6 56.7 207.3z"/><path fill="#74CCCF" d="M486.7,318c-4.4-9.4-16.5-10.5-25.1-14c-3.3-1.3-3.2-5.3-1.5-7.8c5.8-8.6,9.1-19.5,9.8-29.8c0.8-11.1-2.6-20.2-10-28.3c-14.3-15.5-37-26.6-57.2-15.4c-3.1,1.7-7.6,0.3-7.8-3.8c-1-20-10.2-36.7-25.8-49.1c-9.4-7.4-19.8-12.8-32.1-11.1c-11.2,1.5-21.4,6.8-31.3,12c-2.2,1.2-5.5,1.2-6.9-1.3c-6.2-11.4-14.9-22.2-27-27.7c-12.1-5.4-25.9-5.1-38.2-0.4c-15,5.7-29.4,13.6-41.2,24.7c-4.2,4-7.2,8.1-7.6,14.1c-0.4,5.7,0.3,11.4,0.1,17.1c-0.2,4.3-4.6,7.1-8.3,4.1c-10-8.2-20.5-14-33.9-13.9c-14.9,0.1-29.6,5.6-40.8,15.3c-19.1,16.5-24.7,41.2-21,65.4c0.5,3.5-3,5.6-5.9,5.3c-19.8-1.9-44.7,2.2-53.6,22.5c-3.4,7.8-5.4,17.7-3.2,26.1c1.1,4.1,2.8,8.1,6.1,10.9c3.9,3.3,9.2,2.5,13.9,1.7c11.1-2,20.7-3,30.6,3.3c7.6,4.8,13.5,11.7,21.1,16.5c21.1,13.3,44.7-1.6,62.2-14.1c1.3-0.9,3.6-1.3,5-0.3c4.2,2.8,7.4,6.3,11.2,9.7c4.5,4,9.3,4.5,15.2,4.2c6.4-0.3,13.1-1.2,18.6-4.7c3.7-2.3,7-4.8,10.1-7.8c0-15.5,8.1-30.6,22.7-39.3c13.9-8.2,29.1-11.5,45.2-8.7c13.1,2.3,25.4,7.4,37.5,12.7c5.6-28.8,45.1-37.3,70.7-35.2c18.6,1.6,37.8,11.9,50.4,25.5c12.3,13.3,19.4,29.6,19.4,47.5c7.4-0.4,15.1,0.7,22.2,3.1c0.8-2.3,3.1-4.1,5.5-3.7C489.9,336,490.1,325.3,486.7,318z"/><path fill="#FEBF10" d="M234.3,103.8c-8-7.6-17.2-11.3-27.9-13.3c-12.3-2.3-25-3.5-37.5-2.2c-11.9,1.3-23.1,5.6-33.5,11.5c-19.5,11.1-36.1,26.2-44.3,47.5c-6.4,16.5-10.5,37.9-2.7,54.7c3-3.4,6.4-6.6,10.2-9.5c13-10,30-16,46.5-15c11.4,0.7,20.8,4.3,29.7,10.1c-0.1-3.5-0.2-7.1,0.3-10.5c0.9-7,4.5-13.1,9.8-17.7c13.7-12.1,29.3-22.4,46.8-28c5.3-1.7,10.7-2.8,16.2-3.3C245.3,119,241.1,110.3,234.3,103.8z"/><path fill="#D6E5E5" d="M453.2,354.5c-3.5,0.5-5.6-3-5.3-5.9c3.2-33.8-27.7-65-60.6-67.7c-20.8-1.7-60.9,4.5-60.5,32.3c0.1,3.9-3.6,6.5-7.2,4.9c-24.6-11-52.3-23.5-78-8.3c-11.1,6.6-18.2,17.1-19.4,28.4c0.2,0.2,0.4,0.5,0.6,0.7c0,0.1,0,0.2,0,0.3c0,0.5-0.1,1.1-0.1,1.6c0,0.4-0.1,0.7-0.1,1.1c0,0.2,0,0.4,0,0.6c0,0,0,0.1,0,0.1c0,0.8,0,1.6,0.1,2.3c0,0-0.1,0.1-0.1,0.1c-0.1,0.1-0.2,0.2-0.3,0.4c0.7,5.6,2.8,11.2,6.7,16.5c2.2,3-0.1,7.7-3.8,7.8c-2.7,0.1-6,0.7-8.8,2c-0.9-0.2-1.8,0-2.5,0.9c0,0.1-0.1,0.1-0.1,0.2c-2,1.2-3.4,3.3-3.8,5.7c-0.1,0.7,0.1,1.5,0.5,2c0,0,0,0,0,0c-0.2,2,0.8,3.4,2.2,4.1c0,0,0,0.1,0,0.1c5.4,6.2,15.2,5.9,22.8,6c2,0,3.5,1,4.3,2.3c0.8,0.1,1.6,0.4,2.4,0.9c13.4,9.1,27.6,11.7,43.6,11.8c8.6,0,16.6-5,25-4.6c7.1,0.3,12.2,4.9,18.5,7.7c15.8,6.9,32.3,7.3,48.8,2.9c5.7-1.5,11.6-3.3,16.8-6.2c3.3-1.9,8.8-4.9,9-9.3c0.2-3.5,3.5-6.9,7.2-4.9c25.4,13.9,60.2,19.2,79.8-7C507.7,361.6,468.9,352.1,453.2,354.5z"/><path d="M493.7 353.9c-.7-.5-1.3-.9-2-1.4 8-9.9 8.8-25 5-36.5-4-12.1-14.9-15.3-25.5-19 4.8-8.8 7.7-18.6 8.6-28.6 1.3-13.8-2.6-25.2-11.5-35.7-15.8-18.6-40.9-29.8-64.1-21.4-2.9-20.7-14.1-37.7-30.9-50.7-10.5-8.1-22.2-12.8-35.6-11.9-11.6.8-22.6 6-32.9 11.4-7-11.5-16.4-21.4-28.6-27.2-5.8-2.8-11.9-4.3-18.1-4.8 0-.3-.1-.6-.1-.9-5.8-23.6-22.7-40.4-46.4-45.7-13.6-3-27.8-4.2-41.7-3.1-13.3 1-25.4 5.6-37.1 11.7-22.3 11.6-41.1 29.4-50.6 52.9-8.4 20.7-12 46.4-1.1 66.8.2.4.4.7.6 1.1 0 0 0 .1.1.1-2 3.2-3.7 6.5-5.2 9.9-2-8.6-10.2-13.6-12.6-21.8-.5-1.8-1.7-2.8-3.1-3.2-.9-1-2.2-1.7-4-1.5-2.1.2-3.8 1.1-5.1 2.4-3.7 8-4.7 17.5-6.7 26-1.1 4.8-2.2 9.6-3.1 14.5-.1.4-.1.7-.2 1.1 1 1 2.4 1.7 3.9 1.4 9.3-1.5 17.8-6.8 27.1-7.8-2.7 10-3.5 20.7-2.5 31.4-21.1-.8-43 4.7-55.2 23.5-9.8 15.1-12.5 44.1 4.6 55.4 10.3 6.8 22.2.9 33.3.8 10.3-.1 19.2 10.4 26.5 16.4 9 7.4 18.5 10.4 30.2 10.4 13.5 0 26.3-6.5 37.4-13.6 2.6-1.7 5.2-3.5 7.7-5.3 3.7 3.1 6.7 7 10.7 9.6 5.6 3.6 12.2 3.7 18.7 3.6 11.1-.2 21.1-4.2 29.6-10.7.7 2.6 1.7 5.1 2.9 7.5-10.1 2.8-18.5 10.7-16 22.3 3.2 15.2 21.1 17.3 34 17.5.3.3.6.5.9.8 7.1 4.8 14.3 8.6 22.5 11.1 8.1 2.5 16.7 2.9 25.2 3.1 5 .1 9.5-.2 14.3-1.4 4.7-1.2 9.2-2.9 14-3.2 3.1-.2 7.5 3.8 10.1 5.1 4.5 2.3 9.3 4.1 14.1 5.5 16.6 5.2 34.4 2.9 50.8-2.2 9.3-2.9 20.8-7.7 25.3-16.7 29.8 14.2 69 15.9 88.9-15.3C508.4 375.3 505.2 362.1 493.7 353.9zM51.5 228c.6-3 1.1-6.1 1.8-9.1.7-3.3 1.5-6.6 2.6-9.8.2-.6.5-1.2.7-1.8 3.2 5.3 8.1 9.7 10 15.6C61.5 224.2 56.6 226.4 51.5 228zM91 147.3c8.3-21.3 24.8-36.4 44.3-47.5 10.4-5.9 21.6-10.2 33.5-11.5 12.5-1.4 25.2-.1 37.5 2.2 10.7 2 20 5.7 27.9 13.3 6.8 6.5 11 15.2 13.5 24.2-5.5.5-10.9 1.6-16.2 3.3-17.5 5.6-33.2 15.9-46.8 28-5.2 4.6-8.8 10.8-9.8 17.7-.5 3.5-.4 7-.3 10.5-8.9-5.8-18.3-9.4-29.7-10.1-16.5-1-33.4 5.1-46.5 15-3.8 2.9-7.2 6.1-10.2 9.5C80.5 185.3 84.6 163.8 91 147.3zM212.1 341.4c-3.1 3-6.4 5.5-10.1 7.8-5.5 3.4-12.2 4.4-18.6 4.7-5.9.3-10.7-.2-15.2-4.2-3.7-3.4-6.9-6.9-11.2-9.7-1.4-.9-3.7-.6-5 .3-17.5 12.5-41.1 27.4-62.2 14.1-7.5-4.8-13.5-11.7-21.1-16.5-10-6.3-19.6-5.3-30.6-3.3-4.7.8-10 1.6-13.9-1.7-3.3-2.8-5-6.9-6.1-10.9-2.3-8.4-.2-18.3 3.2-26.1 8.9-20.4 33.8-24.5 53.6-22.5 3 .3 6.5-1.8 5.9-5.3-3.7-24.2 1.9-48.9 21-65.4 11.3-9.7 26-15.2 40.8-15.3 13.3-.1 23.8 5.8 33.9 13.9 3.7 3 8.1.1 8.3-4.1.3-5.7-.4-11.4-.1-17.1.4-5.9 3.4-10.1 7.6-14.1 11.7-11.1 26.2-19 41.2-24.7 12.3-4.7 26.1-5 38.2.4 12.2 5.4 20.8 16.3 27 27.7 1.4 2.6 4.7 2.5 6.9 1.3 9.9-5.2 20.1-10.5 31.3-12 12.3-1.7 22.8 3.7 32.1 11.1 15.6 12.4 24.8 29.1 25.8 49.1.2 4 4.6 5.5 7.8 3.8 20.2-11.2 43-.1 57.2 15.4 7.5 8.1 10.8 17.3 10 28.3-.7 10.3-4.1 21.2-9.8 29.8-1.7 2.5-1.8 6.4 1.5 7.8 8.6 3.5 20.7 4.6 25.1 14 3.4 7.3 3.2 18-.9 25.5-2.4-.5-4.7 1.3-5.5 3.7-7.1-2.4-14.9-3.5-22.2-3.1 0-17.9-7.1-34.1-19.4-47.5-12.6-13.6-31.7-24-50.4-25.5-25.6-2.1-65.1 6.3-70.7 35.2-12.1-5.3-24.4-10.4-37.5-12.7-16.1-2.9-31.3.4-45.2 8.7C220.2 310.8 212 325.9 212.1 341.4zM490.9 384.1c-19.7 26.2-54.5 20.9-79.8 7-3.7-2-7.1 1.3-7.2 4.9-.2 4.4-5.7 7.4-9 9.3-5.2 2.9-11.1 4.7-16.8 6.2-16.5 4.4-33.1 4-48.8-2.9-6.3-2.8-11.4-7.3-18.5-7.7-8.5-.4-16.5 4.7-25 4.6-15.9 0-30.2-2.7-43.6-11.8-.8-.5-1.6-.8-2.4-.9-.9-1.3-2.3-2.3-4.3-2.3-7.6 0-17.4.3-22.8-6 0 0 0-.1 0-.1-1.4-.8-2.4-2.1-2.2-4.1 0 0 0 0 0 0-.4-.5-.6-1.3-.5-2 .3-2.4 1.8-4.5 3.8-5.7 0-.1.1-.1.1-.2.6-.9 1.6-1.1 2.5-.9 2.9-1.3 6.2-1.9 8.8-2 3.7-.1 5.9-4.8 3.8-7.8-3.9-5.3-6.1-10.9-6.7-16.5.1-.1.2-.2.3-.4 0 0 .1-.1.1-.1-.1-.8-.1-1.5-.1-2.3 0 0 0-.1 0-.1 0-.2 0-.4 0-.6 0-.4 0-.7.1-1.1 0-.5.1-1.1.1-1.6 0-.1 0-.2 0-.3-.2-.3-.4-.5-.6-.7 1.2-11.3 8.3-21.8 19.4-28.4 25.7-15.2 53.4-2.6 78 8.3 3.6 1.6 7.3-1 7.2-4.9-.4-27.8 39.7-34 60.5-32.3 32.9 2.7 63.9 33.9 60.6 67.7-.3 3 1.8 6.5 5.3 5.9C468.9 352.1 507.7 361.6 490.9 384.1zM140.2 72.5c-3.9-3.2-8.3-5.7-12.4-8.6-5-3.4-11.2-7.2-14.4-12.6-2.7-.4-5.5 1.4-6 3.8-5 11.2-1.3 24.2-1.2 35.9 0 1.9 1 3.2 2.4 3.9 4.1-3.9 9.7-5.7 14.9-7.9 1.2-.7 2.5-1.4 3.7-2.1 2.5-1.4 5-2.5 7.6-3.6.2-.1.4-.2.7-.2 1.8-.9 3.6-1.8 5.4-2.7 1.4-.6 2.8-1.1 4.3-1.6.1-.3.1-.5.1-.8C143.4 75.1 141.7 73.8 140.2 72.5zM122.5 76.1c-2.2 1.2-4.8 2.5-7.3 4.1-.6-5-1.2-10.1-.5-14.8 1.7 1.4 3.5 2.7 5.5 3.8 2.5 1.4 5.7 2.3 8.2 3.8C126.3 74 124.2 75.2 122.5 76.1zM208.4 61.9c-1.5-10.3-3.8-20.8-4.3-31.2-1.7-.8-3.7-.6-5.4 1.4-4.6 5.7-11.1 9.9-16.7 14.6-4.8 3.9-10.7 7.5-12.4 13.8-.9 3.1 1.1 5.1 3.5 5.6.1.4.2.8.4 1.2 2.1 0 4.1 0 6 .3 5.2.7 10.6 1.5 15.6 2.8 5 1.3 9.9 2.8 15 3.5 0 0 0 0 .1 0 .1-.1.2-.2.2-.2C209.6 69.7 209 65.8 208.4 61.9zM180.6 60.5c1-1 2.3-1.8 3-2.4 2.2-1.8 4.5-3.5 6.6-5.4 2.7-2.6 5.7-4.7 8.6-7 .6 2.6 1.2 5.2 1.5 7.9.5 3.6.8 7.1 1.8 10.5C194.9 62.7 187.9 61 180.6 60.5z"/><path d="M284.8 66.3c-.2-1.7-1.2-3.3-2.7-4.1-6.9.9-13.7 2.4-20.5 4.1-7.9 2-15.1 6.5-23.1 8.2 8.3 9.8 12.4 22.6 21.1 31.9 7.4-7.6 15.2-14.9 20-24.5 1.3-2.6 2.4-5.3 3.7-8 .4-.9.9-1.8 1.4-2.8C284.9 69.6 285 67.9 284.8 66.3zM269.5 82.4c-2.6 4.8-5.5 9.6-9 13.7-2.3-2.9-4-6.3-5.8-9.4-1.6-2.7-3.2-5.4-5-7.9.6-.5 1.1-1.1 1.4-1.8 1.2-.6 2.5-1 3.8-1.4 2.9-.9 5.9-1.4 8.9-1.9 3.5-.6 7-1 10.5-1.4C273.2 75.9 271.1 79.5 269.5 82.4zM55.7 119c-4.5.8-9.1 1.8-13.5 3-2.3.6-4.5 1.6-6.7 2.5-.5.5-1 1-1.5 1.6-1.5 1.8-1.6 4.1-.4 6.1.7 1.1 1.4 2.1 2.3 3.1 5.2 4 10.9 7.3 16.9 9.9 4.1 1.8 8.9 3.2 12.8 5.6 1.2.7 2.4 1.6 3.6 2.4.2-.2.4-.4.6-.7.3-.1.7-.3 1-.6 2.1-6.8 3.8-13.6 5.2-20.6.9-4.2 3.5-10.1 3.5-15C71.5 116.6 63.6 117.6 55.7 119zM66.1 132.2c-.6 2.4-.9 5.9-1.4 8.9-2.3-1.3-4.9-2.3-7.3-3.2-4-1.4-9.3-4.5-12.8-8.1 6.3-4.5 16.2-5.4 24-5.9C67.6 126.6 66.8 129.4 66.1 132.2z"/></svg>