<svg xmlns="http://www.w3.org/2000/svg"  viewBox="0 0 512 512" width="48px" height="48px"><path fill="#EF4823" d="M358.8,30.3c-8.7-1.9-17.9-2.2-26.5,0.5c-8.6,2.8-16.6,7.3-24.2,12.1c-24.4,15.5-45.3,35.7-66.1,55.5c-21.6,20.5-40.3,44.1-55.7,69.6c-10.2,16.9-19.4,34.8-27.5,52.8c-3.8,8.4-7.5,17-10,25.9c-1,3.5-2.1,7.3-2.1,10.9c0,1,0,3,0.1,3.4c0.3,1.1,0.8,2,0.4,1.5c1.6,1.8,1.8,3.9,1.3,5.7c2.9,0.4,5.7,0.9,8.4,1.7c4.5,1.2,8.7,3,12.7,5c1-26.5,11.1-52.2,23.5-75.4c13-24.2,28-47.7,45.5-68.9c17.9-21.8,38.3-41.6,60.6-58.9c11.3-8.8,22.9-16.9,35.8-23.4c11.4-5.7,23.3-10.4,35.4-14.6C366.6,32.4,362.8,31.1,358.8,30.3z"/><path fill="#FEBF10" d="M416,65.7c0,0.3,0,0.7-0.1,1.1c-0.8,4.7-5.9,5.3-8.9,3c-0.6,0.2-1.3,0.5-1.9,0.7c-1.9,0.8-3.8,1.7-5.6,2.6c-4.4,2.1-9,3.5-13.6,5.3c-14.3,5.5-27.6,12.6-41,20.1c-25.3,14.1-49.3,28.5-68,51c-17.6,21.2-31.9,45.6-43.8,70.4c-11.3,23.4-21.9,49.7-21,76.1c8.5-6.3,17.8-11.4,28-14c0.4-0.1,0.9-0.2,1.3-0.3c-3.5-5.4-2.9-12.6-1.6-18.7c3.7-17.5,12-34.3,20.3-50c9.7-18.2,22.3-34.5,36.9-49.1c17.9-18,38.3-33.2,60-46.1c11.8-7.1,23.9-14.5,36.6-19.8c13.1-5.6,27-9.1,40.3-14.3C428.2,77.5,422.3,71.5,416,65.7z"/><path fill="#74CCCF" d="M441.1,92.4c-0.5,0.4-1,0.8-1.7,1c-7.2,2.9-14.6,5.3-21.9,7.7c-26.4,8.6-50.9,22.6-73.8,38.3c-21.1,14.6-40.3,31.7-56.2,51.8c-11,13.9-19.3,29-26.6,45.1c-3.7,8.2-7.3,16.5-9.5,25.2c-0.8,3.3-1.7,6.8-1.6,10.2c0,1.2,0.1,2.4,0.3,3c0.5,1.4,0.1,0.8,0.6,1.2c1.3,1.2,1.8,2.6,1.8,4c7.9-0.7,16-0.3,23.6,1.5c-0.8-21.2,8.5-42.3,19.6-59.9c11.3-17.9,25.4-34.6,40.1-49.7c14.9-15.3,31.4-29.2,50-39.7c10-5.7,20.6-11.1,31.5-15c11.2-4,22.8-6.9,33.9-11.2C447.9,101.3,444.6,96.8,441.1,92.4z"/><path fill="#F6851F" d="M406.7,57.4c-7.4-6.3-15.5-12.5-24.2-17.6c-0.5,1.1-1.5,2.1-3.1,2.6c-13.5,4.5-27.1,9.4-39.8,15.9c-12.2,6.3-23.4,14.1-34.2,22.6c-21.5,16.8-41.2,35.9-58.5,57.1c-16.8,20.5-31.5,43.1-43.9,66.5c-12.4,23.5-23.3,49.7-22.4,76.8c0,0.3,0,0.5,0,0.8c8.1,6.2,15.2,13.9,21.9,21.9c0.8-0.7,1.6-1.4,2.4-2.1c-2-0.5-3.7-2-3.8-4.7c-0.5-12.7,1.5-25.5,5-37.7c7.3-25.9,19.3-50,32.7-73.3c14.1-24.3,30.3-48.5,52.3-66.4c11.1-9.1,23.3-16.6,35.8-23.7c12.7-7.2,25.4-14.7,38.6-20.9c10.9-5.1,22.3-8.8,33.3-13.8c2.6-1.2,5.8-2.8,8.9-3.2C407.3,58,407,57.7,406.7,57.4z"/><path fill="#D6E5E5" d="M368.4,340.7c-16.8-4.3-34.5,3.1-47.3,13.8c-2.8,2.4-7.1,0.3-8.3-2.7c-4.4-11.2-7.2-23-11.8-34.1c-3.8-9.2-9.1-18-18.5-22.3c-12-5.5-27.7-6.2-40.3-2.5c-14,4.2-25.8,12.5-36.1,22.7c-2.7,2.7-6.3,2.3-8.7-0.6c-11.8-14.2-25-30.3-43.9-34.6c-21.6-4.8-46.3,1.3-60.4,19.1c-6.6,8.4-10.9,18.4-13.2,28.8c-1.6,7.3-2,17.3-7.2,23.3c-5.8,6.6-15.3,9.3-22.3,14.3c-8.9,6.2-13,14.3-15.4,24.7c-2.1,9.4-1.9,18.7,5.9,25.4c7.2,6.2,16.2,10.1,24.5,14.5c0.1,0,0.1,0,0.2,0c0.2,0,0.5,0,0.7,0c0.3,0,0.5,0,0.8,0c55.4,7.2,111.3-0.3,166.5-4.7c29.9-2.4,59.9-0.4,89.7-3.3c25.6-2.5,64.1-9.2,67.6-40.8C392.7,365.6,385.8,345.2,368.4,340.7z"/><path fill="#3AB37C" d="M457.1,115.3c-0.4,0.2-0.8,0.5-1.2,0.6c-10.9,4.3-22.3,7-33.3,11c-10.6,3.8-20.9,8.7-30.6,14.4c-17.3,10-32.9,22.4-46.9,36.8c-14,14.4-28,30.2-38.7,47.2c-10.4,16.5-20.2,36.1-19.3,56.1c0.1,1.5-0.4,2.7-1.1,3.6c0.1,0.1,0.2,0.1,0.4,0.2c12.3,5.7,19.3,15.8,24.3,27.3c0-0.4,0-0.7,0-1.1c-0.2-5.8,0.5-11.6,1.7-17.3c2.4-11.3,6.5-22.1,10.8-32.8c4.4-10.8,8.4-21.7,14.1-31.9c5.3-9.3,11.3-18.3,18.1-26.5c27.7-33.4,68.7-59.1,112.8-61.3c0.2-0.8,0.5-1.5,1-2.1C465.7,130.9,461.7,123,457.1,115.3z"/><path fill="#010101" d="M480.2,137.4c-10-25.1-25.3-47.3-43.7-66.9c-18.7-19.9-41.4-39.8-67.6-48.7c-13.2-4.5-26.8-5.2-40.2-1.4c-13.1,3.8-25.5,12.2-36.5,19.9c-23.3,16.5-43.6,36.7-64.3,56.2c-30.1,28.4-52.3,65.2-70.7,101.9c-6.3,12.5-12.3,25.3-16.9,38.6c-3,8.9-7.5,21.6-2.7,30.6c-16.4,0.3-33,6.1-45,16.6c-8,6.9-13.9,15.7-18.2,25.3c-4.3,9.8-5.9,20.2-8.3,30.5c-1.6,6.8-8.4,8.5-14.5,12c-8.7,5-16.5,10.8-21.6,19.6c-4.1,7-6.3,16.1-7.1,24.1c-0.8,7.2,0.4,14.1,3.9,20.5c6.8,12.5,22.9,18.3,34.7,24.6c1.4,0.7,2.7,0.8,3.8,0.5c61.1,7.9,122.5-1.4,183.5-5.7c31.1-2.2,62.2,0.9,93.1-4.6c14.9-2.7,30.3-7.1,42.3-16.7c12.1-9.6,17.8-23.4,17.8-38.6c0-18.5-9.4-37.9-27.4-44.6c-17-6.3-35.9-1.2-50.9,7.8c-1.1,0.6-2.1,1.3-3.1,2c-0.6-1.6-1.1-3.3-1.6-4.9c0.2-0.3,0.3-0.6,0.5-1c3.8-10.6,1.2-21.3,2.5-32.2c1.4-11.7,5.4-22.8,9.7-33.7c8-20.3,16.3-39.4,29.9-56.7c26.7-34,68.2-59.9,112.4-60.3c3.2,0,5.1-3.1,5.1-5.9V143C480.4,141.7,481.2,139.8,480.2,137.4z M439.4,93.4c0.7-0.3,1.2-0.6,1.7-1c3.5,4.4,6.9,8.9,10.1,13.6c-11.1,4.3-22.7,7.1-33.9,11.2c-10.9,3.9-21.4,9.3-31.5,15c-18.6,10.6-35.2,24.4-50,39.7c-14.7,15.2-28.8,31.9-40.1,49.7c-11.1,17.6-20.4,38.7-19.6,59.9c-7.6-1.8-15.8-2.2-23.6-1.5c0-1.4-0.5-2.8-1.8-4c-0.5-0.5-0.1,0.1-0.6-1.2c-0.2-0.6-0.3-1.8-0.3-3c-0.1-3.4,0.8-6.9,1.6-10.2c2.2-8.7,5.8-17.1,9.5-25.2c7.3-16.1,15.6-31.2,26.6-45.1c15.9-20.2,35.1-37.3,56.2-51.8c22.8-15.8,47.3-29.8,73.8-38.3C424.8,98.7,432.2,96.4,439.4,93.4z M415.9,66.8c0.1-0.4,0.1-0.7,0.1-1.1c6.2,5.7,12.1,11.8,17.7,18.1c-13.3,5.2-27.1,8.7-40.3,14.3c-12.7,5.4-24.8,12.8-36.6,19.8c-21.8,13-42.1,28.2-60,46.1c-14.5,14.6-27.2,30.9-36.9,49.1c-8.4,15.7-16.7,32.5-20.3,50c-1.3,6.1-1.8,13.3,1.6,18.7c-0.4,0.1-0.9,0.2-1.3,0.3c-10.2,2.6-19.6,7.6-28,14c-0.9-26.5,9.8-52.7,21-76.1c11.9-24.8,26.2-49.2,43.8-70.4c18.7-22.5,42.8-36.9,68-51c13.4-7.5,26.7-14.6,41-20.1c4.6-1.8,9.2-3.2,13.6-5.3c1.9-0.9,3.7-1.8,5.6-2.6c0.6-0.3,1.3-0.5,1.9-0.7C410,72.1,415.2,71.5,415.9,66.8z M382.4,39.8c8.7,5.1,16.8,11.3,24.2,17.6c0.3,0.3,0.6,0.5,0.9,0.8c-3.1,0.4-6.3,2-8.9,3.2c-10.9,5-22.4,8.7-33.3,13.8c-13.2,6.2-25.9,13.7-38.6,20.9c-12.4,7.1-24.7,14.6-35.8,23.7c-22,17.9-38.2,42.1-52.3,66.4c-13.4,23.2-25.4,47.3-32.7,73.3c-3.4,12.2-5.4,25-5,37.7c0.1,2.7,1.8,4.3,3.8,4.7c-0.8,0.7-1.6,1.4-2.4,2.1c-6.8-8-13.8-15.7-21.9-21.9c0-0.3,0-0.5,0-0.8c-0.9-27,10-53.3,22.4-76.8c12.4-23.5,27.1-46,43.9-66.5c17.3-21.1,37-40.3,58.5-57.1c10.8-8.5,22-16.3,34.2-22.6c12.7-6.5,26.3-11.4,39.8-15.9C380.9,41.9,381.9,41,382.4,39.8z M146.7,257.7c0.1-3.7,1.2-7.4,2.1-10.9c2.4-8.9,6.2-17.5,10-25.9c8.1-18.1,17.3-35.9,27.5-52.8c15.4-25.5,34-49.1,55.7-69.6c20.9-19.8,41.8-39.9,66.1-55.5c7.6-4.8,15.6-9.3,24.2-12.1c8.6-2.8,17.8-2.4,26.5-0.5c3.9,0.8,7.7,2.1,11.5,3.6c-12.1,4.2-24,8.8-35.4,14.6c-12.8,6.5-24.4,14.6-35.8,23.4c-22.3,17.3-42.7,37.2-60.6,58.9c-17.5,21.2-32.5,44.7-45.5,68.9c-12.4,23.2-22.5,48.9-23.5,75.4c-4-2.1-8.2-3.8-12.7-5c-2.7-0.7-5.6-1.3-8.4-1.7c0.6-1.8,0.4-4-1.3-5.7c0.4,0.4-0.2-0.5-0.4-1.5C146.6,260.6,146.6,258.6,146.7,257.7z M321.1,354.6c12.9-10.7,30.5-18.1,47.3-13.8c17.4,4.4,24.2,24.9,22.5,41c-3.5,31.6-42,38.3-67.6,40.8c-29.8,2.9-59.8,0.9-89.7,3.3c-55.3,4.5-111.2,12-166.5,4.7c-0.3,0-0.5,0-0.8,0c-0.2,0-0.4,0-0.7,0c-0.1,0-0.1,0-0.2,0c-8.3-4.4-17.3-8.3-24.5-14.5c-7.8-6.7-8-16-5.9-25.4c2.4-10.5,6.5-18.5,15.4-24.7c7.1-5,16.5-7.6,22.3-14.3c5.2-5.9,5.6-16,7.2-23.3c2.3-10.4,6.6-20.4,13.2-28.8c14.1-17.8,38.8-23.9,60.4-19.1c19,4.2,32.1,20.4,43.9,34.6c2.4,2.8,6,3.2,8.7,0.6c10.3-10.2,22.1-18.5,36.1-22.7c12.6-3.8,28.3-3,40.3,2.5c9.4,4.3,14.8,13.1,18.5,22.3c4.5,11.1,7.3,22.9,11.8,34.1C314,354.8,318.2,356.9,321.1,354.6z M468.2,141.4c-44.1,2.2-85.1,28-112.8,61.3c-6.8,8.2-12.9,17.2-18.1,26.5c-5.7,10.2-9.7,21.1-14.1,31.9c-4.3,10.7-8.4,21.5-10.8,32.8c-1.2,5.7-1.9,11.5-1.7,17.3c0,0.4,0,0.7,0,1.1c-5-11.5-12-21.6-24.3-27.3c-0.1-0.1-0.2-0.1-0.4-0.2c0.7-0.9,1.1-2.1,1.1-3.6c-0.9-20,8.9-39.6,19.3-56.1c10.7-17,24.8-32.8,38.7-47.2c13.9-14.3,29.5-26.8,46.9-36.8c9.7-5.6,20.1-10.5,30.6-14.4c11-4,22.4-6.7,33.3-11c0.5-0.2,0.8-0.4,1.2-0.6c4.6,7.7,8.6,15.7,12.1,24C468.7,139.9,468.3,140.6,468.2,141.4z"/></svg>