<svg xmlns="http://www.w3.org/2000/svg"  viewBox="0 0 512 512" width="48px" height="48px"><path fill="#EF4823" d="M397.6,329.5c-1.6-10.4-4.4-20.5-7.2-30.6c-2.6-9.3-5.1-18.8-8.9-27.7c-2.2-5.3-4.8-11-8.6-15.5c-11.6,10.9-24.2,21.4-32.1,35.4c-9.4,16.8-11.9,37.1-12.4,56.2c10.2-10.1,24-15.7,39.4-12.5c12.4,2.5,23.1,9.2,31.5,18.2C399.3,345.1,398.8,337.3,397.6,329.5z"/><path fill="#EF4823" d="M302.9,275.8c-9.1,9.2-16.5,19.8-23.4,30.7c-3.2,5.1-6.3,10.3-9.3,15.5c-1.4,2.4-2.8,4.7-3.9,7.2c8.9-3.9,20.8-3.8,28.6-0.6c8.7,3.6,16.6,9.2,22.8,16.2c0.6-19.5,3.2-40.4,12.6-57.3c8-14.2,19.6-25,31.2-36C339.9,253.8,318.6,260,302.9,275.8z"/><path fill="#FEBF10" d="M382.5 399.9c-.4-15.8-1.9-31.6-1.9-47.5 0-.4 0-.8.1-1.1-3.2-2-6.7-3.6-10.3-4.7 0 3.9 1.4 7.7 2.4 11.4 1.2 4.4 1.8 8.8 2.3 13.4 1 8.9 2.4 17.9 2.7 26.8.4 10.6 1.3 25.8-5.6 35 0 .2.1.3.1.5 1.9 1.1 3.9 2.4 5.7 3.8C379.5 425 382.8 412.7 382.5 399.9zM368.5 224.4c-4.3 2-4.4 8.5-3.4 13.6.8.4 1.4 1 2 1.7 4.4-.2 8.8-.3 13.1-.2C383 233.3 376.2 220.9 368.5 224.4z"/><path fill="#127274" d="M371.1,445.8c-0.3,0.8-0.7,1.5-1.1,2.2c-4.1,6.9-11.1,15.1-19.3,16.9c-18.7,4-36.7-14.4-38.2-32.7c-3.3-0.1-6.6,0.4-6.9,4.4c-0.4,4.6,2.5,9.9,4.6,13.8c5,9,10.9,18.7,21.7,21.2c10.9,2.5,22.5-0.3,31.7-6.4c4.1-2.7,11-7.2,11.6-12.6C375.5,449.9,373.6,447.6,371.1,445.8z"/><path fill="#EF4823" d="M457.6,298c-7.2-8-14.8-15.9-22.5-23.4c-8.2-8-17.4-14.9-28.2-19.1c-7.8-3-15.7-4.4-23.8-4.8c3.2,4.4,5.6,9.5,7.8,14.3c4.3,9.7,7.2,20,10,30.2c3,11,6.2,22.1,7.8,33.4c1,7.3,1.5,14.7,1.7,22c5.1-8.1,12-14.8,20.9-19.5c12.6-6.7,27.1-8.4,41.2-6.9C471.3,314.2,464.2,305.3,457.6,298z"/><path fill="#74CCCF" d="M475.2,230.5c-1.4-9.3-5.9-19.8-15-23.9c-7.8-3.5-16.9-2.6-25.2-3.2c-4.5-0.3-5.3-6.1-3.1-9c7.3-9.6,12.3-21.3,10.7-33.5c-1.5-12-8.4-24.5-17.8-32c-19-15.2-43.4-8.3-62.7,2.7c-4.5,2.6-8.8-0.8-8.5-5.6c1.5-24.3-17.6-47.1-41.7-50.1c-26-3.2-46.4,16.8-57,38.6c-1.9,3.9-7,3.8-9.5,0.6c-12.9-16.8-29.3-32.6-51.9-31.7c-24,0.9-48.2,11.8-64.4,29.7c-8.6,9.5-13.6,20.4-17.8,32.4c-3.8,10.9-7.5,23-15.6,31.6c-7.3,7.8-16.6,12.5-26.2,17.1c-8.9,4.3-18.6,8.7-24.3,17.1c-14,20.4,3.5,50.8,25.3,56.8c12.2,3.4,24.7,2.4,37.1,1.4c9.9-0.9,19.9-0.3,28.2,5.6c8.9,6.4,13.8,16.9,22.7,23.2c10.1,7.1,23.1,7.5,34.7,4.3c12-3.3,23.3-11.8,36.1-11.8c7.2,0,13.5,2,20.2,4.3c6.1,2.1,12.6,4.4,18.4,0.3c2-1.4,4.1-1.2,5.6-0.2c9.8-15.2,21.2-29.7,36.5-39.1c13.1-8,28.6-12.9,44.4-15.2c-2.2-11.2,0.9-25.6,13.6-27.7c14.4-2.4,26.4,13.7,23.4,27.2c22.3,3.2,40.8,14.8,56.3,31.5c0.6,0.7,1.3,1.4,2,2.1c1.4-1.9,3.9-2.6,6.1-2.2c5.5-4.2,11-8.9,14.6-14.7C475.3,249.1,476.6,239.9,475.2,230.5z"/><path d="M483.5,326.6c0.4-17.2-12.4-31.1-24.7-43.4c8-6.2,15.7-12.6,21.4-21.2c6.3-9.4,7.3-21.4,6-32.4c-1.4-11.5-6.8-22.8-16.2-29.9c-7.2-5.4-15.6-6.3-24.1-6.7c5.5-9.6,8.5-20.1,7.8-31.6c-0.9-14.5-9-28.8-19.2-38.8c-19.9-19.3-47.4-15.5-70.3-4.6c-2.7-26-22.2-47.9-48.7-52.8c-28.4-5.2-52.5,13.7-66.4,36.8c-13.2-15.6-29.2-28.4-50.5-29.7c-25.6-1.5-52.4,9.8-71.2,26.9c-10,9.1-17.5,19.7-22.6,32.2c-4.9,12-7.6,25.6-15.5,36.1c-6.9,9.2-18.3,13.6-28.3,18.5c-10.7,5.2-20,11.3-26.5,21.5c-13.1,20.8-0.8,49.2,16.9,62.9c9.9,7.6,22,10.2,34.3,10.8c11.8,0.6,23.9-2.7,35.5-0.8c9.1,1.5,14.9,9.6,20.3,16.3c8,9.8,18,16.4,30.6,18.2c12.7,1.8,25.5-1.5,37-6.6c5.4-2.4,10.9-5.2,16.7-6.3c7.1-1.3,13.7,1,20.3,3.3c6.5,2.2,13.1,3.9,19.4,2.7c-1.5,2.5-3,5.1-4.4,7.6c-1.9,3.3-3.8,6.6-5.4,10.1c-1.4,3.1-1.6,6.2-2.4,9.4c-0.8,3.1,1.4,5.5,4,6.2c1.7,3.1,6,4.7,8.8,1.2c5-6.2,18.4-6.4,25.2-3.6c11.8,4.9,21.9,14.8,26.5,26.8c1.7,4.5,7.9,4.9,10.1,0.6c6.7-12.7,17.7-21.4,31.6-21.5c-0.2,6.8,2.1,13.1,3.7,19.8c2.3,9.1,2.3,19.3,3.3,28.7c0.7,6.2,0.7,12.6,0.3,18.7c-0.3,4.7-0.6,11.5-3.9,15.2c-1.4,1.5-1.7,3.2-1.2,4.8c-2.4,2.3-2.8,6.6-0.2,8.4c-0.8,1.9-2,3.7-3.2,5.4c-2.7,3.6-7.9,9.1-13.8,8.7c-12.2-0.8-21.5-15.9-21-27.1c0.1-2.6-1.3-4.2-3.2-4.7c-0.9-0.8-2.2-1.4-3.7-1.4c-7.2-0.1-14.9-0.7-19.2,6.5c-4.1,7-2.7,14.3,0.3,21.4c6,14.4,15.6,27.8,31,32.6c15.4,4.8,33.2-1.3,45.4-10.9c6.5-5.1,13-12.1,12-21c1.4-1,2.3-2.5,2.4-4.6c0.2-15,5.2-29.5,5-44.7c-0.2-13.5-1.3-26.9-1.8-40.4c4.2,4.6,7.6,9.8,10.1,15.3c2.2,4.8,9.4,4.9,10.6-0.8c2.9-14.7,10.7-26.8,23.9-34.2c10.7-5.9,23.5-7,35.5-5.6c0.9,0.8,2.1,1.2,3.6,1.2h5c5.3,0,6.3-6.7,3-9.7C483.5,326.7,483.5,326.7,483.5,326.6z M249.5,295.1c-6.7-2.3-13.1-4.3-20.2-4.3c-12.8,0-24.1,8.5-36.1,11.8c-11.6,3.2-24.6,2.8-34.7-4.3c-8.9-6.3-13.8-16.8-22.7-23.2c-8.3-6-18.3-6.5-28.2-5.6c-12.4,1.1-24.9,2-37.1-1.4c-21.8-6-39.4-36.4-25.3-56.8c5.8-8.4,15.4-12.9,24.3-17.1c9.5-4.6,18.8-9.3,26.2-17.1c8.1-8.6,11.8-20.7,15.6-31.6c4.2-12,9.2-22.9,17.8-32.4c16.2-17.9,40.4-28.8,64.4-29.7c22.7-0.9,39.1,15,51.9,31.7c2.5,3.2,7.6,3.3,9.5-0.6c10.6-21.7,31-41.8,57-38.6c24.1,3,43.2,25.8,41.7,50.1c-0.3,4.8,4,8.2,8.5,5.6c19.2-11.1,43.7-18,62.7-2.7c9.5,7.6,16.3,20,17.8,32c1.6,12.2-3.4,23.9-10.7,33.5c-2.2,2.9-1.4,8.7,3.1,9c8.3,0.6,17.4-0.3,25.2,3.2c9.1,4.1,13.6,14.7,15,23.9c1.5,9.3,0.2,18.6-4.8,26.6c-3.6,5.8-9.1,10.4-14.6,14.7c-2.1-0.4-4.6,0.3-6.1,2.2c-0.7-0.7-1.4-1.4-2-2.1c-15.5-16.7-33.9-28.3-56.3-31.5c3.1-13.5-8.9-29.5-23.4-27.2c-12.7,2.1-15.8,16.5-13.6,27.7c-15.8,2.3-31.3,7.2-44.4,15.2c-15.3,9.4-26.7,23.9-36.5,39.1c-1.6-1-3.6-1.2-5.6,0.2C262.2,299.5,255.6,297.2,249.5,295.1z M380.1,239.5c-4.3-0.1-8.7-0.1-13.1,0.2c-0.5-0.7-1.2-1.3-2-1.7c-0.9-5-0.8-11.6,3.4-13.6C376.2,220.9,383,233.3,380.1,239.5z M317.7,344.8c-6.2-7.1-14.1-12.7-22.8-16.2c-7.8-3.2-19.7-3.2-28.6,0.6c1.1-2.5,2.6-4.9,3.9-7.2c3-5.2,6.1-10.4,9.3-15.5c6.9-10.9,14.3-21.5,23.4-30.7c15.7-15.8,37-22,58.6-24.3c-11.6,11-23.2,21.8-31.2,36C320.8,304.5,318.2,325.3,317.7,344.8z M375.2,452.6c-0.6,5.4-7.5,9.8-11.6,12.6c-9.2,6.2-20.8,9-31.7,6.4c-10.8-2.5-16.7-12.2-21.7-21.2c-2.1-3.9-5-9.2-4.6-13.8c0.4-4,3.6-4.6,6.9-4.4c1.4,18.3,19.4,36.7,38.2,32.7c8.2-1.8,15.2-10,19.3-16.9c0.4-0.7,0.8-1.4,1.1-2.2C373.6,447.6,375.5,449.9,375.2,452.6z M378.1,437.5c-1.8-1.4-3.8-2.7-5.7-3.8c0-0.2-0.1-0.4-0.1-0.5c6.8-9.2,6-24.4,5.6-35c-0.3-9-1.7-17.9-2.7-26.8c-0.5-4.6-1.1-8.9-2.3-13.4c-1-3.7-2.4-7.5-2.4-11.4c3.6,1.1,7.1,2.7,10.3,4.7c-0.1,0.4-0.1,0.7-0.1,1.1c0.1,15.9,1.5,31.7,1.9,47.5C382.8,412.7,379.5,425,378.1,437.5z M367.9,334.7c-15.3-3.1-29.2,2.4-39.4,12.5c0.4-19.2,2.9-39.4,12.4-56.2c7.8-14,20.5-24.5,32.1-35.4c3.8,4.5,6.3,10.3,8.6,15.5c3.8,8.9,6.3,18.4,8.9,27.7c2.8,10.1,5.6,20.3,7.2,30.6c1.2,7.8,1.6,15.6,1.8,23.4C391.1,343.9,380.3,337.2,367.9,334.7z M431.2,331.2c-8.9,4.7-15.8,11.4-20.9,19.5c-0.2-7.4-0.7-14.7-1.7-22c-1.6-11.3-4.8-22.4-7.8-33.4c-2.8-10.2-5.7-20.5-10-30.2c-2.1-4.8-4.6-9.9-7.8-14.3c8.1,0.4,16.1,1.8,23.8,4.8c10.8,4.2,20,11.1,28.2,19.1c7.7,7.5,15.2,15.5,22.5,23.4c6.6,7.3,13.7,16.2,14.8,26.2C458.3,322.7,443.8,324.5,431.2,331.2z"/></svg>