<svg xmlns="http://www.w3.org/2000/svg"  viewBox="0 0 512 512" width="48px" height="48px"><path fill="#74CCCF" d="M481.9,232.2c-4.4-9.4-16.5-10.5-25.1-14c-3.3-1.3-3.2-5.3-1.5-7.8c5.8-8.6,9.1-19.5,9.8-29.8c0.8-11.1-2.6-20.2-10-28.3c-14.3-15.5-37-26.6-57.2-15.4c-3.1,1.7-7.6,0.3-7.8-3.8c-1-20-10.2-36.7-25.8-49.1c-9.4-7.4-19.8-12.8-32.1-11.1c-11.2,1.5-21.4,6.8-31.3,12c-2.2,1.2-5.5,1.2-6.9-1.3c-6.2-11.4-14.9-22.2-27-27.7c-12.1-5.4-25.9-5.1-38.2-0.4c-15,5.7-29.4,13.6-41.2,24.7c-4.2,4-7.2,8.1-7.6,14.1c-0.4,5.7,0.3,11.4,0.1,17.1c-0.2,4.3-4.6,7.1-8.3,4.1c-10-8.2-20.5-14-33.9-13.9c-14.9,0.1-29.6,5.6-40.8,15.3c-19.1,16.5-24.7,41.2-21,65.4c0.5,3.5-3,5.6-5.9,5.3c-19.8-1.9-44.7,2.2-53.6,22.5c-3.4,7.8-5.4,17.7-3.2,26.1c1.1,4.1,2.8,8.1,6.1,10.9c3.9,3.3,9.2,2.5,13.9,1.7c11.1-2,20.7-3,30.6,3.3c7.6,4.8,13.5,11.7,21.1,16.5c21.1,13.3,44.7-1.6,62.2-14.1c1.3-0.9,3.6-1.3,5-0.3c4.2,2.8,7.4,6.3,11.2,9.7c4.5,4,9.3,4.5,15.2,4.2c6.4-0.3,13.1-1.2,18.6-4.7c3.7-2.3,7-4.8,10.1-7.8c0-15.5,8.1-30.6,22.7-39.3c13.9-8.2,29.1-11.5,45.2-8.7c13.1,2.3,25.4,7.4,37.5,12.7c5.6-28.8,45.1-37.3,70.7-35.2c18.6,1.6,37.8,11.9,50.4,25.5c12.3,13.3,19.4,29.6,19.4,47.5c7.4-0.4,15.1,0.7,22.2,3.1c0.8-2.3,3.1-4.1,5.5-3.7C485.1,250.2,485.4,239.5,481.9,232.2z"/><path fill="#FEBF10" d="M196.1 334.2c-8.1 1.6-16.3 3.9-24.6 3.5-2.4-.1-5.5-1.6-5.4-4.6.3-5 2.2-9.4 3.3-14.1 0 0 0 .1-.1.1-3.8 5.9-8.3 11.3-12.5 16.9-6.7 9.2-14.2 17.7-21.1 26.7 5-1 10-2.7 14.9-4.3 9.3-2.9 18.8-4.9 28.1-7.8 3.9-1.2 6.8 1.9 6.6 5.7-.5 7.2-5.7 13.6-10 19-5.8 7.3-11.1 14.9-16.9 22.2-9.8 12.3-20.2 23.9-29.7 36.4 5.1-1.2 10.2-2.6 15.1-4.2 7.3-2.4 14.5-5.1 22.3-5.4 3.1-.1 6.1 2.7 5.3 5.9-1.1 4.2-3.4 8.3-5.4 12.1 0 0 0 0 0 0 1.8-2.1 3.6-4.2 5.4-6.4 8.2-9.8 16.7-19.7 23.4-30.6-7 2.1-13.8 4.7-21.3 4.9-4 .1-7.6-5.1-4.1-8.3 5.3-5 7.5-12.3 11.7-18.2 5.2-7.3 11.1-14 15.8-21.8 4.3-7.2 8.4-14.5 12.9-21.5 2.1-3.3 5.1-7.2 6.5-11.3C209.5 331.1 202.9 332.8 196.1 334.2zM321.4 375.9c-10.2.9-20.3 2.2-30.6 1.7-3.1-.1-6-2.5-5.3-5.9.8-3.7 1.8-7.3 2.8-11-8.8 13-19.5 24.8-29.7 36.8 4.5-.8 9-1.8 13.3-3.3 6.8-2.3 13.5-5 20.8-5.3 3.3-.1 5.8 2.6 5.3 5.9-1 6.5-5.3 11.6-9.8 16.1-5.4 5.5-10.3 11.5-15.3 17.4-6.5 7.6-13.7 15-19.8 23.1.9-.6 1.8-1.3 2.6-2 5-4.1 10.6-7.6 15.7-11.7 10.6-8.5 20.9-17.2 31.1-26.2 10.4-9.2 21.6-17.5 31.6-27.1 2.8-2.7 5.6-5.3 8.4-7.9 1.6-1.5 3.1-3 4.5-4.6 0 0 0 0 .1-.1C338.7 374.5 330.2 375.2 321.4 375.9z"/><path fill="#D6E5E5" d="M448.5,268.8c-3.5,0.5-5.6-3-5.3-5.9c3.2-33.8-27.7-65-60.6-67.7c-20.8-1.7-60.9,4.5-60.5,32.3c0.1,3.9-3.6,6.5-7.2,4.9c-24.6-11-52.3-23.5-78-8.3c-11.1,6.6-18.2,17.1-19.4,28.4c0.2,0.2,0.4,0.5,0.6,0.7c0,0.1,0,0.2,0,0.3c0,0.5-0.1,1.1-0.1,1.6c0,0.4-0.1,0.7-0.1,1.1c0,0.2,0,0.4,0,0.6c0,0,0,0.1,0,0.1c0,0.8,0,1.6,0.1,2.3c0,0-0.1,0.1-0.1,0.1c-0.1,0.1-0.2,0.2-0.3,0.4c0.7,5.6,2.8,11.2,6.7,16.5c2.2,3-0.1,7.7-3.8,7.8c-2.7,0.1-6,0.7-8.8,2c-0.9-0.2-1.8,0-2.5,0.9c0,0.1-0.1,0.1-0.1,0.2c-2,1.2-3.4,3.3-3.8,5.7c-0.1,0.7,0.1,1.5,0.5,2c0,0,0,0,0,0c-0.2,2,0.8,3.4,2.2,4.1c0,0,0,0.1,0,0.1c5.4,6.2,15.2,5.9,22.8,6c2,0,3.5,1,4.3,2.3c0.8,0.1,1.6,0.4,2.4,0.9c13.4,9.1,27.6,11.7,43.6,11.8c8.6,0,16.6-5,25-4.6c7.1,0.3,12.2,4.9,18.5,7.7c15.8,6.9,32.3,7.3,48.8,2.9c5.7-1.5,11.6-3.3,16.8-6.2c3.3-1.9,8.8-4.9,9-9.3c0.2-3.5,3.5-6.9,7.2-4.9c25.4,13.9,60.2,19.2,79.8-7C503,275.8,464.2,266.4,448.5,268.8z"/><path d="M489 268.1c-.7-.5-1.3-.9-2-1.4 8-9.9 8.8-25 5-36.5-4-12.1-14.9-15.3-25.5-19 4.8-8.8 7.7-18.6 8.6-28.6 1.3-13.8-2.6-25.2-11.5-35.7-15.8-18.6-40.9-29.8-64.1-21.4-2.9-20.7-14.1-37.7-30.9-50.7-10.5-8.1-22.2-12.8-35.6-11.9-11.6.8-22.6 6-32.9 11.4-7-11.5-16.4-21.4-28.6-27.2-14-6.7-30-6-44.5-1.4-17.5 5.6-33.2 15.9-46.8 28-5.2 4.6-8.8 10.8-9.8 17.7-.5 3.5-.4 7-.3 10.5-8.9-5.8-18.3-9.4-29.7-10.1-16.5-1-33.4 5.1-46.5 15-22.1 16.9-30.9 43.8-28.4 70.6-21.1-.8-43 4.7-55.2 23.5C.4 216-2.3 245 14.8 256.3c10.3 6.8 22.2.9 33.3.8 10.3-.1 19.2 10.4 26.5 16.4 9 7.4 18.5 10.4 30.2 10.4 13.5 0 26.3-6.5 37.4-13.6 2.6-1.7 5.2-3.5 7.7-5.3 3.7 3.1 6.7 7 10.7 9.6 5.6 3.6 12.2 3.7 18.7 3.6 11.1-.2 21.1-4.2 29.6-10.7.7 2.6 1.7 5.1 2.9 7.5-10.1 2.8-18.5 10.7-16 22.3 3.2 15.2 21.1 17.3 34 17.5.3.3.6.5.9.8 7.1 4.8 14.3 8.6 22.5 11.1 8.1 2.5 16.7 2.9 25.2 3.1 5 .1 9.5-.2 14.3-1.4 4.7-1.2 9.2-2.9 14-3.2 3.1-.2 7.5 3.8 10.1 5.1 4.5 2.3 9.3 4.1 14.1 5.5 16.6 5.2 34.4 2.9 50.8-2.2 9.3-2.9 20.8-7.7 25.3-16.7 29.8 14.2 69 15.9 88.9-15.3C503.7 289.6 500.5 276.3 489 268.1zM207.3 255.6c-3.1 3-6.4 5.5-10.1 7.8-5.5 3.4-12.2 4.4-18.6 4.7-5.9.3-10.7-.2-15.2-4.2-3.7-3.4-6.9-6.9-11.2-9.7-1.4-.9-3.7-.6-5 .3-17.5 12.5-41.1 27.4-62.2 14.1C77.5 264 71.6 257 64 252.2c-10-6.3-19.6-5.3-30.6-3.3-4.7.8-10 1.6-13.9-1.7-3.3-2.8-5-6.9-6.1-10.9-2.3-8.4-.2-18.3 3.2-26.1 8.9-20.4 33.8-24.5 53.6-22.5 3 .3 6.5-1.8 5.9-5.3-3.7-24.2 1.9-48.9 21-65.4 11.3-9.7 26-15.2 40.8-15.3 13.3-.1 23.8 5.8 33.9 13.9 3.7 3 8.1.1 8.3-4.1.3-5.7-.4-11.4-.1-17.1.4-5.9 3.4-10.1 7.6-14.1 11.7-11.1 26.2-19 41.2-24.7 12.3-4.7 26.1-5 38.2.4 12.2 5.4 20.8 16.3 27 27.7 1.4 2.6 4.7 2.5 6.9 1.3 9.9-5.2 20.1-10.5 31.3-12 12.3-1.7 22.8 3.7 32.1 11.1 15.6 12.4 24.8 29.1 25.8 49.1.2 4 4.6 5.5 7.8 3.8 20.2-11.2 43-.1 57.2 15.4 7.5 8.1 10.8 17.3 10 28.3-.7 10.3-4.1 21.2-9.8 29.8-1.7 2.5-1.8 6.4 1.5 7.8 8.6 3.5 20.7 4.6 25.1 14 3.4 7.3 3.2 18-.9 25.5-2.4-.5-4.7 1.3-5.5 3.7-7.1-2.4-14.9-3.5-22.2-3.1 0-17.9-7.1-34.1-19.4-47.5-12.6-13.6-31.7-24-50.4-25.5-25.6-2.1-65.1 6.3-70.7 35.2-12.1-5.3-24.4-10.4-37.5-12.7-16.1-2.9-31.3.4-45.2 8.7C215.5 225 207.3 240.2 207.3 255.6zM486.1 298.3c-19.7 26.2-54.5 20.9-79.8 7-3.7-2-7.1 1.3-7.2 4.9-.2 4.4-5.7 7.4-9 9.3-5.2 2.9-11.1 4.7-16.8 6.2-16.5 4.4-33.1 4-48.8-2.9-6.3-2.8-11.4-7.3-18.5-7.7-8.5-.4-16.5 4.7-25 4.6-15.9 0-30.2-2.7-43.6-11.8-.8-.5-1.6-.8-2.4-.9-.9-1.3-2.3-2.3-4.3-2.3-7.6 0-17.4.3-22.8-6 0 0 0-.1 0-.1-1.4-.8-2.4-2.1-2.2-4.1 0 0 0 0 0 0-.4-.5-.6-1.3-.5-2 .3-2.4 1.8-4.5 3.8-5.7 0-.1.1-.1.1-.2.6-.9 1.6-1.1 2.5-.9 2.9-1.3 6.2-1.9 8.8-2 3.7-.1 5.9-4.8 3.8-7.8-3.9-5.3-6.1-10.9-6.7-16.5.1-.1.2-.2.3-.4 0 0 .1-.1.1-.1-.1-.8-.1-1.5-.1-2.3 0 0 0-.1 0-.1 0-.2 0-.4 0-.6 0-.4 0-.7.1-1.1 0-.5.1-1.1.1-1.6 0-.1 0-.2 0-.3-.2-.3-.4-.5-.6-.7 1.2-11.3 8.3-21.8 19.4-28.4 25.7-15.2 53.4-2.6 78 8.3 3.6 1.6 7.3-1 7.2-4.9-.4-27.8 39.7-34 60.5-32.3 32.9 2.7 63.9 33.9 60.6 67.7-.3 3 1.8 6.5 5.3 5.9C464.2 266.4 503 275.8 486.1 298.3zM357.8 369c-.6-2.2-2.2-3.2-3.9-3.3-.3-3-2.9-5.8-6.5-4.4-8.8 3.2-17.6 3.9-26.8 4.6-8 .6-15.9 1.6-23.9 1.8 2-7.5 4.5-15 5.2-22.8.3-2.8-1.6-4.8-3.7-5.5-1.6-3.3-7-4.6-9-.3-11.1 23.7-30.7 41.9-46.6 62.3-2.4 3.1-.5 9.1 4.1 8.3 7.8-1.3 15.7-2.7 23.4-4.5 4.8-1.1 9.4-3.1 14.2-4.5-2 2.5-4.5 4.6-6.6 6.8-5.2 5.4-9.8 11.4-14.7 17.1-9.3 10.8-19.5 21.3-26.5 33.8-1.9 3.4.7 6.4 3.7 7 1.2 3.1 5.6 5.1 8.5 1.9 4.1-4.5 10.1-8.3 15.2-11.4 6.1-3.8 11.5-8.6 17.1-13.1 11.5-9.1 22.3-19 33.4-28.5 10.2-8.8 20.6-17.3 30.5-26.5C349.9 383.3 359.9 376.7 357.8 369zM347.1 372c-1.4 1.7-3 3.1-4.5 4.6-2.8 2.7-5.6 5.2-8.4 7.9-10 9.6-21.2 18-31.6 27.1-10.2 9-20.5 17.6-31.1 26.2-5.1 4.1-10.7 7.6-15.7 11.7-.9.7-1.7 1.4-2.6 2 6.2-8 13.4-15.4 19.8-23.1 5-5.9 9.8-11.9 15.3-17.4 4.5-4.5 8.8-9.6 9.8-16.1.5-3.3-2-6.1-5.3-5.9-7.2.3-14 3-20.8 5.3-4.3 1.4-8.8 2.4-13.3 3.3 10.2-12.1 20.9-23.8 29.7-36.8-1 3.6-2.1 7.3-2.8 11-.7 3.5 2.2 5.8 5.3 5.9 10.2.5 20.4-.9 30.6-1.7C330.2 375.2 338.7 374.5 347.1 372 347.1 372 347.1 372 347.1 372z"/><path d="M206.7,365c4.4-7.4,8.7-14.9,13.3-22.2c3.8-5.9,8.2-13.2,6.7-20.5c-0.7-3.3-3.2-5.2-6.6-4.3c-8.8,2.3-17.4,4.7-26.3,6.5c-5.6,1.1-11.2,2.5-16.9,3.1c1-3.5,2.4-6.8,2.9-10.4c0.8-5.2,0.5-10.5,2.1-15.6c0.9-2.7-0.6-4.6-2.7-5.3c-1.4-3.2-6.9-4.6-9.4-0.5c-3.3,5.5-5.3,11.7-8.6,17.3c-3.8,6.3-8.7,11.8-13,17.7c-8.6,11.8-18.6,22.5-27,34.6c-2.6,3.8-0.4,8.1,4.1,8.3c9.3,0.4,18.3-2.6,27-5.3c6.5-2.1,13.2-3.7,19.9-5.5c-2.1,3.2-4.8,6.2-7,9c-5.7,7.3-11,14.9-16.8,22.1c-11.8,14.7-24.5,28.5-35.2,44.1c-2.2,3.1-0.7,9.1,4.1,8.3c8.4-1.5,16.5-3.8,24.7-5.8c5.4-1.3,10.6-3.4,15.9-4.8c-0.2,0.5-0.5,1-0.7,1.5c-2.7,5.3-5.6,10.4-8.5,15.6c-2.9,5.1-5.9,10.1-9,15.1c-1,1.6-2.1,3.2-3.2,4.8c-0.3,0.4-0.6,0.8-0.9,1.1c-3.7,1.3-4,8.2,0.9,9.9c2.3,0.8,4.3-0.6,5.9-2.4c1,0.1,2.1-0.2,3.2-1c5.5-4.3,9.2-10.2,13.4-15.6c5.6-7.3,12.8-13.2,18.5-20.5c11-14.3,23.4-27.4,31.1-43.9c1.5-3.2-0.9-7.8-4.9-7.2c-6.8,1-13.3,3.6-20,5.4c1.7-3.2,3.4-6.5,5.5-9.4C195.3,380.9,201.6,373.5,206.7,365z M173.5,410.3c7.5-0.2,14.3-2.8,21.3-4.9c-6.7,11-15.2,20.8-23.4,30.6c-1.8,2.2-3.6,4.3-5.4,6.4c0,0,0,0,0,0c2-3.8,4.3-7.9,5.4-12.1c0.8-3.3-2.2-6-5.3-5.9c-7.7,0.2-15,3-22.3,5.4c-4.9,1.6-10,3-15.1,4.2c9.5-12.4,19.9-24.1,29.7-36.4c5.8-7.3,11.1-14.9,16.9-22.2c4.3-5.4,9.6-11.8,10-19c0.2-3.8-2.6-6.9-6.6-5.7c-9.3,2.9-18.9,4.9-28.1,7.8c-5,1.5-9.9,3.2-14.9,4.3c7-9,14.4-17.5,21.1-26.7c4.1-5.7,8.7-11,12.5-16.9c0,0,0-0.1,0.1-0.1c-1.1,4.7-3,9.1-3.3,14.1c-0.2,3,2.9,4.5,5.4,4.6c8.3,0.5,16.5-1.9,24.6-3.5c6.8-1.4,13.5-3.1,20.1-4.9c-1.4,4.1-4.4,8-6.5,11.3c-4.5,7-8.6,14.4-12.9,21.5c-4.7,7.7-10.6,14.4-15.8,21.8c-4.2,5.9-6.4,13.2-11.7,18.2C165.9,405.3,169.5,410.4,173.5,410.3z"/></svg>