<svg xmlns="http://www.w3.org/2000/svg"  viewBox="0 0 512 512" width="48px" height="48px"><path fill="#74CCCF" d="M188.5 326.8c-4.5-1.6-5.2 2.9-5.7 6.3-.3 1.8-1.2 2.9-2.4 3.5 2.4 3.9 8.5 4.7 10.6-.3C192.3 333.3 192.1 328.1 188.5 326.8zM390.8 434.7c-3.6-.9-10.1-2.1-13.5.2-3.8 2.6-4.5 6.4-4.5 10.8 0 1.1-.3 2-.8 2.7 0 .2.1.4.1.6 1.7 11 18.6 3 22.5-2.3C397.6 442.6 396.2 436.1 390.8 434.7zM331 355.1c-5.4-.8-7.9 2.9-8.3 7.8-.1 1.9-1.1 3-2.3 3.6 1.2 2.5 3.4 4.4 6.7 4.8 3.5.5 9-.6 10-4.7C338.3 361.8 336.6 356 331 355.1zM69.9 380.3c-2.7-2.3-6.6-4.9-8.5-.8-1.3 3-1.3 6.4-.2 9.5 2.6 2.8 6.2 4.8 9.1 1.2C72.7 387.3 73 382.9 69.9 380.3zM144 284.3c-.1 1.4-.6 2.4-1.4 3 1.6 3.7 4.6 6.7 8.4 8 4.9 1.7 7.7-1.8 8.4-6.4C160.7 280 144.8 272.9 144 284.3zM211.5 492.5c-2.8 1.2-2.5 5.8-2.1 8.1.1.4.1.7.1 1 2.9.9 6.4-.8 6.7-4.2C216.3 495.8 213.5 491.7 211.5 492.5zM204.9 414.3c-9.9-1.8-9.3 11-9.3 17.3 0 .7-.1 1.3-.3 1.9 4.8.9 13.1-4.5 14.7-7.9C211.9 421.7 209.7 415.2 204.9 414.3zM58.7 294.2c0 1-.2 1.8-.6 2.5 4.9 4.6 14.2 4 14-4.7C71.9 283.4 58.7 286.5 58.7 294.2zM486.7 221.1c-4.4-9.4-16.5-10.5-25.1-14-3.3-1.3-3.2-5.3-1.5-7.8 5.8-8.6 9.1-19.5 9.8-29.8.8-11.1-2.6-20.2-10-28.3-14.3-15.5-37-26.6-57.2-15.4-3.1 1.7-7.6.3-7.8-3.8-1-20-10.2-36.7-25.8-49.1-9.4-7.4-19.8-12.8-32.1-11.1-11.2 1.5-21.4 6.8-31.3 12-2.2 1.2-5.5 1.2-6.9-1.3-6.2-11.4-14.9-22.2-27-27.7-12.1-5.4-25.9-5.1-38.2-.4-15 5.7-29.4 13.6-41.2 24.7-4.2 4-7.2 8.1-7.6 14.1-.4 5.7.3 11.4.1 17.1-.2 4.3-4.6 7.1-8.3 4.1-10-8.2-20.5-14-33.9-13.9-14.9.1-29.6 5.6-40.8 15.3-19.1 16.5-24.7 41.2-21 65.4.5 3.5-3 5.6-5.9 5.3-19.8-1.9-44.7 2.2-53.6 22.5-3.4 7.8-5.4 17.7-3.2 26.1 1.1 4.1 2.8 8.1 6.1 10.9 3.9 3.3 9.2 2.5 13.9 1.7 11.1-2 20.7-3 30.6 3.3 7.6 4.8 13.5 11.7 21.1 16.5 21.1 13.3 44.7-1.6 62.2-14.1 1.3-.9 3.6-1.3 5-.3 4.2 2.8 7.4 6.3 11.2 9.7 4.5 4 9.3 4.5 15.2 4.2 6.4-.3 13.1-1.2 18.6-4.7 3.7-2.3 7-4.8 10.1-7.8 0-15.5 8.1-30.6 22.7-39.3 13.9-8.2 29.1-11.5 45.2-8.7 13.1 2.3 25.4 7.4 37.5 12.7 5.6-28.8 45.1-37.3 70.7-35.2 18.6 1.6 37.8 11.9 50.4 25.5 12.3 13.3 19.4 29.6 19.4 47.5 7.4-.4 15.1.7 22.2 3.1.8-2.3 3.1-4.1 5.5-3.7C489.9 239.1 490.1 228.4 486.7 221.1z"/><path fill="#D6E5E5" d="M453.2,257.6c-3.5,0.5-5.6-3-5.3-5.9c3.2-33.8-27.7-65-60.6-67.7c-20.8-1.7-60.9,4.5-60.5,32.3c0.1,3.9-3.6,6.5-7.2,4.9c-24.6-11-52.3-23.5-78-8.3c-11.1,6.6-18.2,17.1-19.4,28.4c0.2,0.2,0.4,0.5,0.6,0.7c0,0.1,0,0.2,0,0.3c0,0.5-0.1,1.1-0.1,1.6c0,0.4-0.1,0.7-0.1,1.1c0,0.2,0,0.4,0,0.6c0,0,0,0.1,0,0.1c0,0.8,0,1.6,0.1,2.3c0,0-0.1,0.1-0.1,0.1c-0.1,0.1-0.2,0.2-0.3,0.4c0.7,5.6,2.8,11.2,6.7,16.5c2.2,3-0.1,7.7-3.8,7.8c-2.7,0.1-6,0.7-8.8,2c-0.9-0.2-1.8,0-2.5,0.9c0,0.1-0.1,0.1-0.1,0.2c-2,1.2-3.4,3.3-3.8,5.7c-0.1,0.7,0.1,1.5,0.5,2c0,0,0,0,0,0c-0.2,2,0.8,3.4,2.2,4.1c0,0,0,0.1,0,0.1c5.4,6.2,15.2,5.9,22.8,6c2,0,3.5,1,4.3,2.3c0.8,0.1,1.6,0.4,2.4,0.9c13.4,9.1,27.6,11.7,43.6,11.8c8.6,0,16.6-5,25-4.6c7.1,0.3,12.2,4.9,18.5,7.7c15.8,6.9,32.3,7.3,48.8,2.9c5.7-1.5,11.6-3.3,16.8-6.2c3.3-1.9,8.8-4.9,9-9.3c0.2-3.5,3.5-6.9,7.2-4.9c25.4,13.9,60.2,19.2,79.8-7C507.7,264.7,468.9,255.2,453.2,257.6z"/><path fill="#74CCCF" d="M452.6,332.7c-1.4-0.3-3.5-0.9-5-0.5c0,0.1-0.1,0.3-0.2,0.8c-0.3,2.3-0.3,4.5-0.6,6.8c0.8,1,1.3,2.3,1.2,3.9c-0.6,6.7,13.6,5.3,15.6,0.5C466,338.3,457,333.5,452.6,332.7z"/><path d="M493.7 257c-.7-.5-1.3-.9-2-1.4 8-9.9 8.8-25 5-36.5-4-12.1-14.9-15.3-25.5-19 4.8-8.8 7.7-18.6 8.6-28.6 1.3-13.8-2.6-25.2-11.5-35.7-15.8-18.6-40.9-29.8-64.1-21.4-2.9-20.7-14.1-37.7-30.9-50.7-10.5-8.1-22.2-12.8-35.6-11.9-11.6.8-22.6 6-32.9 11.4-7-11.5-16.4-21.4-28.6-27.2-14-6.7-30-6-44.5-1.4-17.5 5.6-33.2 15.9-46.8 28-5.2 4.6-8.8 10.8-9.8 17.7-.5 3.5-.4 7-.3 10.5-8.9-5.8-18.3-9.4-29.7-10.1-16.5-1-33.4 5.1-46.5 15-22.1 16.9-30.9 43.8-28.4 70.6-21.1-.8-43 4.7-55.2 23.5-9.8 15.1-12.5 44.1 4.6 55.4 10.3 6.8 22.2.9 33.3.8 10.3-.1 19.2 10.4 26.5 16.4 9 7.4 18.5 10.4 30.2 10.4 13.5 0 26.3-6.5 37.4-13.6 2.6-1.7 5.2-3.5 7.7-5.3 3.7 3.1 6.7 7 10.7 9.6 5.6 3.6 12.2 3.7 18.7 3.6 11.1-.2 21.1-4.2 29.6-10.7.7 2.6 1.7 5.1 2.9 7.5-10.1 2.8-18.5 10.7-16 22.3 3.2 15.2 21.1 17.3 34 17.5.3.3.6.5.9.8 7.1 4.8 14.3 8.6 22.5 11.1 8.1 2.5 16.7 2.9 25.2 3.1 5 .1 9.5-.2 14.3-1.4 4.7-1.2 9.2-2.9 14-3.2 3.1-.2 7.5 3.8 10.1 5.1 4.5 2.3 9.3 4.1 14.1 5.5 16.6 5.2 34.4 2.9 50.8-2.2 9.3-2.9 20.8-7.7 25.3-16.7 29.8 14.2 69 15.9 88.9-15.3C508.4 278.4 505.2 265.2 493.7 257zM212.1 244.5c-3.1 3-6.4 5.5-10.1 7.8-5.5 3.4-12.2 4.4-18.6 4.7-5.9.3-10.7-.2-15.2-4.2-3.7-3.4-6.9-6.9-11.2-9.7-1.4-.9-3.7-.6-5 .3-17.5 12.5-41.1 27.4-62.2 14.1-7.5-4.8-13.5-11.7-21.1-16.5-10-6.3-19.6-5.3-30.6-3.3-4.7.8-10 1.6-13.9-1.7-3.3-2.8-5-6.9-6.1-10.9-2.3-8.4-.2-18.3 3.2-26.1 8.9-20.4 33.8-24.5 53.6-22.5 3 .3 6.5-1.8 5.9-5.3-3.7-24.2 1.9-48.9 21-65.4 11.3-9.7 26-15.2 40.8-15.3 13.3-.1 23.8 5.8 33.9 13.9 3.7 3 8.1.1 8.3-4.1.3-5.7-.4-11.4-.1-17.1.4-5.9 3.4-10.1 7.6-14.1 11.7-11.1 26.2-19 41.2-24.7 12.3-4.7 26.1-5 38.2.4 12.2 5.4 20.8 16.3 27 27.7 1.4 2.6 4.7 2.5 6.9 1.3 9.9-5.2 20.1-10.5 31.3-12 12.3-1.7 22.8 3.7 32.1 11.1 15.6 12.4 24.8 29.1 25.8 49.1.2 4 4.6 5.5 7.8 3.8 20.2-11.2 43-.1 57.2 15.4 7.5 8.1 10.8 17.3 10 28.3-.7 10.3-4.1 21.2-9.8 29.8-1.7 2.5-1.8 6.4 1.5 7.8 8.6 3.5 20.7 4.6 25.1 14 3.4 7.3 3.2 18-.9 25.5-2.4-.5-4.7 1.3-5.5 3.7-7.1-2.4-14.9-3.5-22.2-3.1 0-17.9-7.1-34.1-19.4-47.5-12.6-13.6-31.7-24-50.4-25.5-25.6-2.1-65.1 6.3-70.7 35.2-12.1-5.3-24.4-10.4-37.5-12.7-16.1-2.9-31.3.4-45.2 8.7C220.2 213.8 212 229 212.1 244.5zM490.9 287.1c-19.7 26.2-54.5 20.9-79.8 7-3.7-2-7.1 1.3-7.2 4.9-.2 4.4-5.7 7.4-9 9.3-5.2 2.9-11.1 4.7-16.8 6.2-16.5 4.4-33.1 4-48.8-2.9-6.3-2.8-11.4-7.3-18.5-7.7-8.5-.4-16.5 4.7-25 4.6-15.9 0-30.2-2.7-43.6-11.8-.8-.5-1.6-.8-2.4-.9-.9-1.3-2.3-2.3-4.3-2.3-7.6 0-17.4.3-22.8-6 0 0 0-.1 0-.1-1.4-.8-2.4-2.1-2.2-4.1 0 0 0 0 0 0-.4-.5-.6-1.3-.5-2 .3-2.4 1.8-4.5 3.8-5.7 0-.1.1-.1.1-.2.6-.9 1.6-1.1 2.5-.9 2.9-1.3 6.2-1.9 8.8-2 3.7-.1 5.9-4.8 3.8-7.8-3.9-5.3-6.1-10.9-6.7-16.5.1-.1.2-.2.3-.4 0 0 .1-.1.1-.1-.1-.8-.1-1.5-.1-2.3 0 0 0-.1 0-.1 0-.2 0-.4 0-.6 0-.4 0-.7.1-1.1 0-.5.1-1.1.1-1.6 0-.1 0-.2 0-.3-.2-.3-.4-.5-.6-.7 1.2-11.3 8.3-21.8 19.4-28.4 25.7-15.2 53.4-2.6 78 8.3 3.6 1.6 7.3-1 7.2-4.9-.4-27.8 39.7-34 60.5-32.3 32.9 2.7 63.9 33.9 60.6 67.7-.3 3 1.8 6.5 5.3 5.9C468.9 255.2 507.7 264.7 490.9 287.1zM278 380.4c-2.7-7.7-13-11.1-19.8-14.2 3.2-1.6 6.5-3.1 9.6-4.8 3.7-2 9.4-4.5 10.3-9.1 1.2-5.8-7-7.9-9.4-3.2-.1.1-.4.3-.8.6-1 .7-2 1.3-3 1.9-1.1.6-2.2 1.2-3.3 1.8 1.3-4.5 2-9 1.9-13.8-.1-6.4-10.1-5.7-10 .8.1 5.3-1.1 10.5-3 15.5-1.5-6-2.9-12-3-18.3-.1-6.4-10.1-5.7-10 .8.1 5.9 1.2 11.7 2.6 17.4-3.2-1.6-6.5-2.9-10-3.4-6.4-.9-8.3 8.9-1.9 9.8 2.6.4 5.2 1.3 7.6 2.5-2.5.9-4.9 1.9-7.3 3-4.6 2.1-10.5 5-12.5 10-2.3 6 6.6 10.5 9 4.4 1.6-4.1 9.6-6.3 13.4-7.8 1.2-.5 2.4-.9 3.6-1.3-2.1 3.7-4.1 7.2-5.9 10.7-2.9 5.8 6 10.2 9 4.4.5-1 1-2 1.5-3 .7 4.5 1.6 8.9 3.3 13.1 2.3 6 11.8 2.7 9.4-3.3-2.4-6-3.2-12.7-4.2-19.2 2 .9 4 1.8 5.9 2.7 2 1 6.6 2.8 7.5 5.1C270.7 389.8 280.2 386.5 278 380.4z"/><path d="M414.1 337.7h-2c-.5 0-.9.1-1.3.2-3.3.2-6.7.7-10 1.2.7-1.9 1.3-3.7 2.1-5.5 2.6-5.9-6.4-10.4-9-4.4-.1.2-.2.5-.3.7-1.9-4.4-9.8-3.2-9.6 2.6.1 2.8.7 5.4 1.5 8-5.8-2-11.5-4.1-17-6.8-5.8-2.8-10.2 6.1-4.4 9 2.5 1.2 5.1 2.4 7.8 3.4-1.9.7-3.8 1.5-5.7 2.6-5.5 3.4.1 11.6 5.6 8.3 3.8-2.3 8.6-3.5 13.3-4.3-.3.5-.5 1.1-.8 1.6-2.1 4.1-7.2 10.8-6.3 15.7 1.1 6.2 10.9 5.6 10-.6.1-.1.1-.3.2-.5.5-1.4 1.2-2.7 1.9-4 1.2-2.4 2.5-4.7 3.7-7 0-.1 0-.1.1-.2 1 2 1.7 4.3 2.6 6.3.5 1.3 1 2.6 1.5 3.9.1.4.3.8.4 1.3-2.1 3.6 2.7 9.1 7.5 6.6 6-3.2 1.2-12.6-.9-17.2.6.3 1.3.6 1.9.9 5.8 2.8 10.2-6.1 4.4-9-1.3-.6-2.6-1.2-4-1.8 2.5-.4 5-.7 7.5-.7C421.3 347.5 420.5 337.7 414.1 337.7zM342.8 449.6v-2c0-5-6.1-5.7-8.8-2.6-1.3 0-2.6 0-4 0 3.4-4.7 6.8-9.5 10.8-13.8 3.3-3.4-.1-8.3-4.1-8.3h-1.3c-2.9 0-4.4 2.1-4.4 4.3-3.3 3.8-6.2 7.8-9.1 11.8-.2-5-.4-9.9-.4-14.9 0-6.4-10-5.7-10 .8 0 6 .3 11.9.6 17.9-5-3.4-10.1-7.2-12.8-12.4-2.9-5.7-11.2-.1-8.3 5.6 2.4 4.7 6.5 8.4 10.9 11.7-3.1.7-6.1 1.6-9.1 2.8-6 2.3-2.7 11.7 3.3 9.4 3.6-1.4 7.3-2.4 11.1-3.1-4.1 4.8-7.9 9.7-10.6 15.5-2.7 5.9 6.3 10.3 9 4.4 1.9-4.1 4.4-7.8 7.3-11.3 0 1.6 0 3.2 0 4.8-.7 1.3-.9 3-.1 4.7.6 6.4 9.7 5.4 10-.9.1-3.7.1-7.4.1-11.1 3 2.5 5.9 5 8.7 7.7.2.2.4.4.6.6.5.5 1.1 1 1.6 1.6 4.2 4.1 10.4-1.9 7.4-6.6-.6-1-1.3-1.6-2.2-2.3 0 0-.1-.1-.1-.1-3.3-3.2-6.8-6.2-10.3-9.1 3.2-.1 6.4-.1 9.5-.1C341.1 455 342.8 452.2 342.8 449.6zM148 377.3C148 377.3 148 377.3 148 377.3c2.2-.4 4.3-.9 6.4-1.6 6.1-2.1 2.8-11.5-3.3-9.4-3.6 1.2-7.9 1.9-12.3 2.3-.1-.6-.1-1.2-.1-1.8 3-4 6-8 9.2-11.8 4.1-5-3.4-11.6-7.5-6.6-.8 1-1.7 2.1-2.5 3.1-.1-2.3-.1-4.6-.1-6.9 0-6.4-10-5.6-10 .8 0 5.7.2 11.4.6 17.1-2.1-1.6-4.1-3.2-6.3-4.7-2.8-1.9-6.4-3.4-8.4-6.2-3.8-5.2-12.1.3-8.3 5.6 3.7 5.2 10 8 14.9 11.8.7.5 1.4 1 2.1 1.6-6.6.8-16.1 2.2-17.1 8.2-.9 5.6 6.5 7.7 9.1 3.9.2-.1.3-.1.6-.2 0 0 0 0 0 0-1.1 1.9-1.9 4-2.3 6.3-1.2 6.3 8.6 8.2 9.8 1.9.8-4.2 3.7-7.6 6.5-10.9.4 0 .7-.1 1.1-.2.5 4.4 1.2 8.8 1.9 13.2 1.1 6.3 10 5.7 10-.8v-2.7c0-1.2-.3-2.1-.9-2.8-.1-.8-.2-1.5-.3-2.3 2.6 2 5.1 4 7.6 6.1 1.8 1.6 7.7 6.5 7.1 8.4-2 6.1 7.8 7.9 9.8 1.9C168.1 391.4 153.9 381.9 148 377.3zM210.1 482.6c-7.5 1.3-11.2 9.1-11 16.2-1.8 1.5-2.6 4-.9 6.4 4 5.8 10.5 8.1 17.3 6.1 6.4-1.9 10.6-8 10.6-14.6C226.1 489.1 217.7 481.3 210.1 482.6zM209.4 501.7c0-.3 0-.7-.1-1-.4-2.4-.6-6.9 2.1-8.1 2-.9 4.8 3.3 4.6 4.9C215.9 500.9 212.4 502.5 209.4 501.7zM65.7 276.8c-7.1.1-12.7 4.4-15.3 10.3-2.8-.1-5.5 1.7-5 5.2 1.5 9.7 8.9 17.2 19 17.4C74.5 310 81.6 302 82 292.2 82.5 282.6 74.7 276.7 65.7 276.8zM58.1 296.7c.4-.7.6-1.5.6-2.5 0-7.7 13.2-10.8 13.4-2.2C72.4 300.7 63 301.3 58.1 296.7zM190.6 317.1c-9.9-2.4-15.8 4.2-17.4 13.1-2.3.4-4.1 2.1-3.6 5.1 1.4 7.4 6.1 13.4 13.9 14.5 7.8 1.1 14.8-3.8 17.3-11.1C203.6 330.3 199.9 319.3 190.6 317.1zM191.1 336.3c-2.1 5-8.2 4.2-10.6.3 1.2-.6 2.2-1.7 2.4-3.5.5-3.4 1.1-7.9 5.7-6.3C192.1 328.1 192.3 333.3 191.1 336.3zM204.5 404.2c-6-.5-11.5 2.3-15 7.2-3.4 4.9-3.9 10.5-3.9 16.2-2.1 1-3.8 3.2-3 6.1 2.2 8.5 11.2 10.7 18.8 9 8.6-1.8 16-7.7 18.8-16.1C223.7 416.6 214.5 405 204.5 404.2zM210 425.6c-1.6 3.4-9.9 8.7-14.7 7.9.2-.6.3-1.2.3-1.9 0-6.4-.7-19.1 9.3-17.3C209.7 415.2 211.9 421.7 210 425.6zM455.7 323.2c-5.2-1.6-11.6-1.7-15.7 2.3-3.4 3.2-2.5 9.5-3.1 13.6-.3 1.8.3 3.2 1.3 4.2-.1 17.7 28.3 20.1 34.7 4.7C477.8 335.8 465.9 326.3 455.7 323.2zM463.6 344.1c-2 4.8-16.2 6.2-15.6-.5.1-1.6-.4-2.9-1.2-3.9.3-2.3.3-4.5.6-6.8.1-.5.1-.7.2-.8 1.5-.4 3.6.2 5 .5C457 333.5 466 338.3 463.6 344.1zM77.2 373.4c-6-6.7-17-8.8-23-1.2-5.6 7.1-4.7 17.9.1 25.2 1.1 1.6 2.5 2.3 4 2.2 6 3.8 13.4 3.1 19.1-2.3C84.2 390.7 83.1 380.1 77.2 373.4zM70.3 390.3c-3 3.6-6.5 1.6-9.1-1.2-1.1-3.1-1.1-6.5.2-9.5 1.9-4.2 5.9-1.5 8.5.8C73 382.9 72.7 387.3 70.3 390.3zM134.8 278.7c-2 .6-3.6 2.3-3.3 5 1 9.7 7.6 18.5 17.1 21.3 10.6 3.1 18.5-4.1 20.6-14.1C173.3 270.3 139.9 259.4 134.8 278.7zM159.4 289c-.7 4.5-3.5 8.1-8.4 6.4-3.8-1.4-6.8-4.4-8.4-8 .8-.6 1.3-1.6 1.4-3C144.8 272.9 160.7 280 159.4 289zM333.7 345.5c-9.2-2.6-17.7 3.4-20.1 11.8-2.1.5-4.1 2.3-4.1 5.1-.1 21.2 30.9 26.2 37.5 6.2C350.2 358.5 343.3 348.2 333.7 345.5zM337.1 366.7c-1 4.1-6.5 5.2-10 4.7-3.3-.5-5.6-2.3-6.7-4.8 1.2-.5 2.2-1.7 2.3-3.6.4-4.9 2.9-8.7 8.3-7.8C336.6 356 338.3 361.8 337.1 366.7zM390.2 424.3c-6.4-1.3-14.1-.7-19.6 3-6.3 4.3-7.7 12-7.8 19.1 0 0 0 0 0 .1-.6.8-.9 1.9-.7 3.3 3.4 22.8 35.1 15.4 42.6-.7C410 437.6 401.3 426.6 390.2 424.3zM394.6 446.7c-3.9 5.3-20.8 13.3-22.5 2.3 0-.2-.1-.4-.1-.6.5-.8.8-1.7.8-2.7.1-4.4.8-8.2 4.5-10.8 3.3-2.3 9.9-1.1 13.5-.2C396.2 436.1 397.6 442.6 394.6 446.7z"/></svg>