<svg xmlns="http://www.w3.org/2000/svg"  viewBox="0 0 512 512" width="48px" height="48px"><path fill="none" d="M154.7,487.3C154.7,487.3,154.7,487.3,154.7,487.3c0.1,0,0.2,0,0.2,0H154.7z"/><path fill="#D6E5E5" d="M427.5,180.4c-0.1-5.5,0-11.3-0.8-16.8c-1.3-8.3-2.4-22-10.2-27.4c-1.8,0.1-3.6-0.6-4.8-1.9c-0.7,0.1-1.4,0.1-2.1,0.1c-1.5,0-2.6-0.4-3.6-1.2c-5.1-0.4-10.2-1.3-15.2-2.2c1.1,3.1,1.9,6.3,2.5,9.2c2.1,9.7,3.1,19.7,3.3,29.7c0.2,15.1,0.2,29.5-4.7,43.9c-0.6,1.9-1.4,4.6-2.5,7.5c11-1.5,22-2.3,33.1-3.3c0.5-0.3,1.1-0.5,1.8-0.6c0.3-0.6,0.5-1.2,0.6-1.6c0.9-3.4,1.4-6.9,1.8-10.3C427.5,197.1,427.6,188.7,427.5,180.4z"/><path fill="#EF4823" d="M376.8,222.1c-0.2,0.3-0.3,0.6-0.5,0.8c1.1-0.4,2.3-0.6,3.6-0.2c0,0,0,0,0,0C378.5,222.2,377.5,222.1,376.8,222.1z"/><path fill="#C56528" d="M155.3,464.4c-3.5-8.4-7.9-16.3-12.2-24.3c-5.9-10.9-10.5-22.6-15.3-34.1c-12.2-28.9-21.8-58.1-27.6-89c-6-31.5-6.6-62.8-7.6-94.7c-0.9-28.4-0.3-58.2,11.6-84.6c6.4-14.2,15.4-27.2,23.2-40.6c5.8-9.9,13.2-20.4,16.3-31.5c0.7-2.6,1.5-5.5,1.1-8.2c-0.1-0.7-0.2-1.2-0.3-1.5c-0.3,0-0.6,0-0.6,0c-5.2,1.8-10.4,6.3-14.6,10.3c-28,26.2-47.8,59.1-57.4,96.3c-6.7,25.8-9.2,52.5-8.5,79.1c0.7,26.6,3.7,53.9,10.2,79.7c7.3,29.1,19.7,56.4,34,82.7c14.6,27,28.2,54.8,46.1,79.8c0.8,1.1,1.1,2.3,1,3.4h0.2C163.8,485.2,157.4,469.4,155.3,464.4z"/><path fill="#EF4823" d="M375.2 223.5C375.2 223.6 375.2 223.6 375.2 223.5c.3.1.5 0 .7 0 0-.1.1-.1.1-.2.1-.1.1-.3.2-.4C375.9 223.1 375.5 223.3 375.2 223.5zM466.3 149.6c-8.5-11.4-23.6-15.7-38.1-16.9 1 1.4 1.8 2.7 2.5 4 3.4 6.5 5.2 13.9 6.3 21.1 1.2 7.8 1.4 15.7 1.5 23.6.1 10.7.1 21.6-1.8 32.2-.2.9-.4 2-.6 3.1 10.1-1.3 20.7-3.8 26.9-12.3 5.8-8.1 8.4-18.6 9.1-28.4C472.5 167.1 471.7 157 466.3 149.6zM256.6 95.2c-5.9-1.7-11.9-3.4-18.1-4.1-2.4-.3-4.8-.5-7.2-.3-.2 0-.5 0-.7.1.9 27.9 2.7 56.6-4.1 83.9-4.3 17.6-12.3 36.1-27.5 47.1 11 5.3 22.4 9.4 34.5 11.5 7.1 1.3 14.3 1.9 21.5 2.1 10.1-7 16.4-18.7 20.7-30 4.4-11.4 7.2-23.6 7.3-35.8C283.2 143.6 275.4 114.5 256.6 95.2z"/><path fill="#D6E5E5" d="M219.9,96.4c-3.2,1.7-5.8,5-7.6,7.8c-5.3,7.8-8.4,17.2-11.2,26.2c-3,9.8-6.5,19.4-10.1,29.1c-4.5,12-9.2,24.5-10.3,37.4c-0.2,2.5-0.3,11.1,1.5,16c0.1,0.1,0.2,0.1,0.3,0.2c1.7,1,3.4,2,5.2,3c6.6-2.5,11.8-9,15.8-14.4c6-8.1,9.5-17.4,11.9-27.2C221.8,148.9,220.8,122.5,219.9,96.4z"/><path fill="#EF4823" d="M385.6,168.7c-0.3-8.1-1-16.2-2.5-24.1c-0.7-3.9-1.7-7.8-3.3-11.4c-0.4-1-1-2.3-1.7-3c-0.6-0.6-1.3-0.9-1-0.9c-0.8-0.2-1.5-0.5-2.1-0.9c-8.1-1.2-16.1-2.3-24.1-4.1c-4.3-1-8.6-2-12.9-3.1c1.5,4.5,2.3,9.4,3.2,13.7c2.4,11.8,4.2,23.4,3.2,35.5c-1.1,13.3-3.5,26.4-8.3,38.9c-3,7.9-6.7,15.5-10.7,23c5.1-0.5,10.1-1.2,15.2-1.9c11.6-1.8,22.9-4.5,34.4-6.7c0.1,0,0.1-0.1,0.2-0.1c-0.2-0.4,0.1-1.3,1.5-1.4c0.2-0.3,0.4-0.7,0.5-1.1c0.9-1.9,1.7-3.7,2.4-5.7c1.1-2.8,2.1-5.6,3-8.5C386.5,194.6,386,181.5,385.6,168.7z"/><path fill="#D6E5E5" d="M331,139.6c-1.4-6.6-2.1-16.9-7-22c-11.1-3-22.1-6.4-32.8-10.2c-5.2-1.9-10.5-3.9-15.7-5.8c13.3,20.5,19.6,46.4,18.6,70.2c-0.6,14.3-3.8,28.2-9.4,41.4c-3.4,7.9-7.6,15.8-13.3,22.4c7.4-0.2,14.8-0.6,22.2-1c6.2-0.3,12.5-0.6,18.7-1.1c4.6-8.5,9.1-17,12.7-26c4.3-10.9,6.5-21.9,7.9-33.5C334.5,162.5,333.4,150.9,331,139.6z"/><path d="M375.2 223.5c.3-.2.7-.4 1.1-.6.2-.3.3-.6.5-.8C375.3 222.2 375 223.1 375.2 223.5zM154.9 487.3c-.1 0-.2 0-.2.1 0 0 0 0 0-.1h-12.1c.6.9 1.3 1.8 1.9 2.8 1.2 1.6 2.7 2.3 4.3 2.3-.3 3.1 1.7 6.4 5.7 6.1 7.4-.6 12.3-5.1 14.5-11.2H154.9z"/><path d="M468.2,135.8c-15.1-12.7-37.5-15.1-56.5-14.3c-1.2,0.1-2.2,0.4-3,1c-8.5-0.4-16.8-2.5-25.2-3.9c-11.4-1.9-22.8-3.3-34.1-6c-19.1-4.4-38.8-9.7-57.2-16.6c-12.9-4.8-25.7-9.7-39-13.2c-8.9-2.4-21.4-5.6-30.1-0.8c-0.7,0.3-1.4,0.7-2,1.3c-0.1,0.1-0.2,0.1-0.3,0.2c-0.4-0.1-0.8-0.1-1.2-0.1c-14.6,0.3-29.6,6.7-43.3,11.2c-16.4,5.5-32.6,12.4-47.5,21.4c5.7-9.6,11.4-19.3,16.9-29c5.2-9.2,11.4-20.6,9.8-31.5c-0.9-6.2-5-10.8-11.5-10.7c-5.8,0.1-11.6,4.5-15.9,7.9c-11.5,9.1-21.5,20.5-30.6,31.9c-29.8,37.1-42.2,85.5-44.8,132.2c-3,55.2,6.8,111.7,29.8,161.9c8.6,18.9,19.5,36.4,28.8,54.9c9.3,18.5,19.4,36.6,31.2,53.6h12.1c0.1-1.1-0.2-2.2-1-3.4c-17.9-25-31.5-52.8-46.1-79.8c-14.2-26.3-26.6-53.6-34-82.7c-6.5-25.9-9.5-53.1-10.2-79.7c-0.7-26.6,1.9-53.3,8.5-79.1c9.6-37.3,29.4-70.1,57.4-96.3c4.2-4,9.4-8.5,14.6-10.3c0,0,0.3,0,0.6,0c0.1,0.4,0.2,0.8,0.3,1.5c0.4,2.7-0.4,5.6-1.1,8.2c-3.1,11.1-10.5,21.6-16.3,31.5c-7.8,13.4-16.8,26.5-23.2,40.6c-11.9,26.4-12.4,56.1-11.6,84.6c1,31.9,1.7,63.3,7.6,94.7c5.8,30.8,15.5,60.1,27.6,89c4.8,11.4,9.4,23.1,15.3,34.1c4.3,8,8.7,15.9,12.2,24.3c2.1,5,8.5,20.8-0.4,22.9H169c0.8-2.2,1.3-4.5,1.4-6.9c0.4-8.9-3.9-18.2-7.5-26.1c-3.7-7.9-8.1-15.4-12.1-23.1c-6.4-12.4-11.6-26.2-16.9-39.2c-11.9-29.4-20.5-59.5-25.3-90.9c-4.7-31-5.1-62.5-5.3-93.8c-0.1-14.5,0.8-29,3.9-43.3c2.5-11.7,7.1-22.1,12.7-32.4c0,0,0,0.1,0,0.1c4.8,17.8,11.6,36.5,22.4,51.6c5.1,7.1,11.4,13.4,17.1,20.1c5.5,6.5,9.1,14.4,15,20.6c1.3,1.3,2.8,1.7,4.3,1.4c2.1,1.4,4.5,1.9,6.9,1.9c20.5,11,42.3,17.8,65.9,19.2c14.9,0.9,30-0.3,44.9-1c5.4-0.2,10.7-0.6,16-1c2,1,4.5,1.1,6.3-0.5c8.2-0.7,16.5-1.7,24.6-2.9c15.6-2.4,30.9-6.5,46.6-8.8c14.6-2.1,29.2-2.8,43.8-4.3c12-1.2,24.5-3.9,33.6-12.2c7.4-6.8,11.3-17.1,13.6-26.6C485.5,170.5,483.6,148.8,468.2,135.8z M170,194.7c-0.1,1.3-0.2,2.6-0.3,4c-0.4-0.5-0.7-0.9-1.1-1.4c-5.3-6.3-11-12.2-16.1-18.8c-11.1-14.4-17.5-33.1-22.2-50.4c15.5-9.9,32.4-17.2,49.7-23c7.5-2.5,15.4-5.6,23.5-7.9c-6.5,9.1-10.2,21.3-13.2,31C183.5,150.2,172.4,171.6,170,194.7z M187.7,216c-1.7-1-3.5-2-5.2-3c-0.1-0.1-0.2-0.1-0.3-0.2c-1.8-5-1.7-13.6-1.5-16c1.1-12.9,5.7-25.4,10.3-37.4c3.6-9.6,7.1-19.2,10.1-29.1c2.7-9,5.9-18.3,11.2-26.2c1.9-2.8,4.5-6.1,7.6-7.8c0.9,26.1,1.9,52.5-4.4,78c-2.4,9.7-5.9,19.1-11.9,27.2C199.5,207,194.3,213.5,187.7,216z M255.2,235.6c-7.2-0.2-14.4-0.8-21.5-2.1c-12.1-2.2-23.5-6.3-34.5-11.5c15.2-11,23.2-29.5,27.5-47.1c6.7-27.3,5-56,4.1-83.9c0.2,0,0.4,0,0.7-0.1c2.4-0.3,4.8,0,7.2,0.3c6.1,0.8,12.1,2.4,18.1,4.1c18.7,19.2,26.6,48.4,26.5,74.6c0,12.2-2.9,24.4-7.3,35.8C271.6,216.9,265.3,228.6,255.2,235.6z M312.4,233.5c-6.2,0.5-12.5,0.8-18.7,1.1c-7.4,0.3-14.8,0.8-22.2,1c5.6-6.6,9.9-14.5,13.3-22.4c5.6-13.1,8.8-27.1,9.4-41.4c1-23.8-5.3-49.7-18.6-70.2c5.2,1.9,10.4,3.9,15.7,5.8c10.7,3.8,21.7,7.2,32.8,10.2c4.9,5.2,5.7,15.5,7,22c2.4,11.3,3.5,22.9,2,34.4c-1.5,11.6-3.6,22.6-7.9,33.5C321.5,216.5,317,225,312.4,233.5z M382.7,206.9c-0.9,2.9-1.9,5.7-3,8.5c-0.7,1.9-1.5,3.8-2.4,5.7c-0.2,0.4-0.4,0.7-0.5,1.1c0.7,0,1.8,0.1,3.2,0.7c0,0,0,0,0,0c-1.3-0.4-2.5-0.3-3.6,0.2c-0.1,0.1-0.1,0.3-0.2,0.4c0,0.1-0.1,0.1-0.1,0.2c-0.2,0-0.4,0.1-0.7,0.1c0,0,0-0.1-0.1-0.1c-0.1,0-0.1,0.1-0.2,0.1c-11.5,2.2-22.8,4.9-34.4,6.7c-5,0.8-10.1,1.4-15.2,1.9c3.9-7.5,7.6-15.1,10.7-23c4.8-12.5,7.2-25.6,8.3-38.9c1-12.1-0.8-23.7-3.2-35.5c-0.9-4.4-1.7-9.2-3.2-13.7c4.3,1.1,8.6,2.1,12.9,3.1c8,1.8,16,2.9,24.1,4.1c0.6,0.4,1.3,0.7,2.1,0.9c-0.3-0.1,0.4,0.2,1,0.9c0.7,0.7,1.3,2.1,1.7,3c1.6,3.6,2.5,7.5,3.3,11.4c1.5,7.9,2.2,16,2.5,24.1C386,181.5,386.5,194.6,382.7,206.9z M426.6,205.5c-0.3,3.5-0.9,7-1.8,10.3c-0.1,0.4-0.3,1-0.6,1.6c-0.7,0.1-1.3,0.3-1.8,0.6c-11,1-22,1.8-33.1,3.3c1.1-2.9,1.9-5.6,2.5-7.5c4.9-14.4,4.9-28.8,4.7-43.9c-0.2-9.9-1.2-20-3.3-29.7c-0.6-2.9-1.4-6.1-2.5-9.2c5.1,0.9,10.1,1.8,15.2,2.2c0.9,0.7,2.1,1.2,3.6,1.2c0.7,0,1.4,0,2.1-0.1c1.1,1.3,3,2,4.8,1.9c7.9,5.3,9,19,10.2,27.4c0.8,5.5,0.7,11.2,0.8,16.8C427.6,188.7,427.5,197.1,426.6,205.5z M471.9,175.9c-0.7,9.8-3.2,20.4-9.1,28.4c-6.2,8.6-16.8,11.1-26.9,12.3c0.3-1.1,0.5-2.1,0.6-3.1c1.9-10.5,1.9-21.5,1.8-32.2c-0.1-7.9-0.3-15.8-1.5-23.6c-1.1-7.2-2.9-14.6-6.3-21.1c-0.6-1.2-1.5-2.6-2.5-4c14.5,1.2,29.6,5.5,38.1,16.9C471.7,157,472.5,167.1,471.9,175.9z"/></svg>