<svg xmlns="http://www.w3.org/2000/svg"  viewBox="0 0 512 512" width="48px" height="48px"><path fill="#EF4823" d="M333.2,392.4c-5.6-20.7-27.6-33.8-45.6-42.5c-2.2-1.1-3.1-3-3-4.9c-1.5-0.4-3-1.4-3.8-3.2c-2.7-6.2-4.1-14.7-4.3-21.5c-0.3-12.5-0.2-25,0.1-37.5c0.3-12.6-0.2-25-1.4-37.6c-1.1-10.8-2.6-21.6-2.7-32.5c0-0.1,0-0.3,0-0.4v-0.6c-7.3-1.7-15.7,2-23,1.9c-7.4-0.1-15.4-1.5-22.7,0c3,9.7,2.7,19.9,2.7,30.1c0,11.4,1.9,22.7,2,34.1c0.1,11.9,1,23.9,1,35.8c0,8.6,1.3,17.5-1.6,25.8c-1.3,3.9-5.2,3.8-7.7,1.9c-0.4,2.1-2,4-4.8,4.2c-18.4,1.3-30,22.8-31,39.6c-1.5,25.3,18,51.1,38.7,63.7c21.7,13.2,51.4,17.3,73.4,2.7c10.4-6.9,19.6-16.2,25.9-27.1C330.7,415.3,336.1,403.2,333.2,392.4z"/><path fill="#D6E5E5" d="M352.1,390.9c-3.7-22.3-21.3-43-44.2-46.5c-3.2-0.5-4.5-2.9-4.3-5.4c-1.8-0.6-3.1-2.1-3.1-4.6c-0.1-27.6-4.6-55-6.6-82.5c-2-27.4-3-54.9-4.1-82.3c-1.1-26.9-2.3-53.7-2.3-80.6c0-12.8,1.2-25.9,0-38.6c-1.1-11.1-4.1-21.9-4-33.1c-16.1,0.3-32.2,2.8-48.3,2c-7.1-0.3-14.2-1.1-21.3-1.2c-4-0.1-8.8-0.3-13,0.8c2.9,7.9,2.5,17.1,3.3,25.3c1.3,12.4,1.2,24.8,1.3,37.3c0.2,27,1.4,54.1,2.8,81.1c3,54,7.1,107.9,7.1,162c0,3.1-1.9,5.5-5.1,5.9c-8.6,1.1-16.9,4.3-24,9.2c-0.2,0.7-0.7,1.3-1.3,2c-9.1,9.4-14.7,21.4-16,34.4c-1.2,12.6,1.7,24.2,6.8,35.7c9.7,21.9,23.7,47.3,45.5,59.3c36.9,20.4,84.3,9.8,111.2-22.2C345.6,433.5,355.6,411.5,352.1,390.9z M344.7,401.5c-0.8,9.8-4.3,19.4-9.4,27.8c-12.6,20.9-32.8,38.4-57.6,41.7c-26.1,3.4-53-6-71.9-24.1c-17.5-16.7-33.3-42.2-28.6-67.5c3.8-20.6,17.6-43.2,40.5-44.8c1.3-0.1,2.4,0.2,3.3,0.8c0.1-0.2,0.1-0.5,0.2-0.7c1.2-3.5,0.7-7.9,0.6-11.6c-0.2-4.7-0.2-9.4-0.2-14.1c-0.1-11.2-0.5-22.4-1.1-33.6c-0.6-10.8-2-21.5-1.8-32.4c0.1-10.2,0.4-20.4-3.7-30c-1.4-3.4,0.6-6,3.4-6.8c0.6-1,1.5-1.8,3-2.2c10.2-3,20.4-0.3,30.8-1.2c9.8-0.8,19.1-4.2,28.5,0.4c2.6,1.3,3.3,3.8,2.8,6c0.2,0.5,0.2,1.1,0.2,1.7c0,11.3,1.6,22.5,2.7,33.7c1.3,12.6,1.7,24.9,1.4,37.6c-0.3,12.5-0.8,25-0.1,37.5c0.4,6,1.2,13.1,3.7,18.7c0.2,0.5,0.4,1.1,0.4,1.6c0.3,0.1,0.5,0.2,0.8,0.3c16.7,8,34.6,19.1,44.9,35C342.4,383,345.5,392,344.7,401.5z"/><path d="M311.5,333.9c0-0.1,0-0.2,0-0.3v-2c0-0.2,0-0.5,0-0.7c-0.4-26-4.5-51.9-6.4-77.8c-2-26.8-3-53.6-4.1-80.4c-1-26.3-2.3-52.5-2.4-78.8c-0.1-13,0.7-26.1,0.4-39.2c-0.3-11.7-4.4-23.3-4.5-35.1c1.8-0.9,3.2-2.6,3.2-5.1v-3c0-3.3-3.1-4.9-5.9-5.1c-19.8-0.9-39.5,3-59.3,1.8c-13-0.8-29.5-4.1-41.3,3.1c-3.1,1.9-3,5.2-1.4,7.5c0,0.2,0,0.3,0,0.5v3c0,2,0.9,3.4,2.1,4.1c1.4,6.4,1.1,13.4,1.7,19.7c1.3,12.7,1.1,25.3,1.2,38c0.2,27,1.5,54.1,2.9,81.1c2.8,51.6,6.7,103.2,7,155c-9.2,1.9-18,5.6-25.6,11.1c-1.2,0.8-1.8,1.9-2.1,3c-17.7,18.2-22.6,44.7-15.9,68.8c3.3,11.7,9.4,23.1,15.4,33.6c6.3,11.1,13.9,21.5,22.9,30.6c31.5,31.8,82.1,31.6,118.5,8.8c24.8-15.6,42.2-42,45.7-71.2C367.1,373.4,343,339.6,311.5,333.9z M332.7,448.9c-26.9,32-74.3,42.5-111.2,22.2c-21.8-12-35.9-37.4-45.5-59.3c-5-11.5-8-23.1-6.8-35.7c1.3-13,6.9-25.1,16-34.4c0.6-0.6,1-1.3,1.3-2c7.2-4.9,15.4-8.1,24-9.2c3.1-0.4,5.1-2.8,5.1-5.9c-0.1-54.1-4.2-108-7.1-162c-1.5-27-2.6-54-2.8-81.1c-0.1-12.5,0-24.8-1.3-37.3c-0.8-8.2-0.4-17.4-3.3-25.3c4.2-1.1,9-0.8,13-0.8c7.1,0.1,14.2,0.9,21.3,1.2c16.1,0.7,32.2-1.8,48.3-2c-0.1,11.2,3,21.9,4,33.1c1.2,12.8,0,25.8,0,38.6c0,26.9,1.2,53.7,2.3,80.6c1.1,27.5,2.2,54.9,4.1,82.3c2,27.5,6.5,54.9,6.6,82.5c0,2.5,1.4,4,3.1,4.6c-0.2,2.4,1.2,4.9,4.3,5.4c22.9,3.5,40.5,24.3,44.2,46.5C355.6,411.5,345.6,433.5,332.7,448.9z"/><path d="M337.3,375.1c-10.2-16-28.1-27-44.9-35c-0.3-0.1-0.5-0.2-0.8-0.3c-0.1-0.5-0.2-1-0.4-1.6c-2.4-5.6-3.3-12.7-3.7-18.7c-0.7-12.5-0.2-25,0.1-37.5c0.3-12.6-0.2-25-1.4-37.6c-1.1-11.2-2.7-22.4-2.7-33.7c0-0.6-0.1-1.2-0.2-1.7c0.5-2.2-0.2-4.7-2.8-6c-9.4-4.7-18.7-1.2-28.5-0.4c-10.4,0.8-20.6-1.8-30.8,1.2c-1.5,0.4-2.4,1.2-3,2.2c-2.7,0.8-4.8,3.4-3.4,6.8c4.1,9.6,3.8,19.8,3.7,30c-0.1,10.9,1.3,21.6,1.8,32.4c0.6,11.2,1.1,22.4,1.1,33.6c0,4.7,0,9.4,0.2,14.1c0.1,3.7,0.6,8.1-0.6,11.6c-0.1,0.2-0.1,0.5-0.2,0.7c-0.9-0.6-2-0.9-3.3-0.8c-22.9,1.6-36.7,24.2-40.5,44.8c-4.6,25.3,11.1,50.7,28.6,67.5c19,18.1,45.8,27.5,71.9,24.1c24.8-3.3,45-20.8,57.6-41.7c5.1-8.4,8.6-18,9.4-27.8C345.5,392,342.4,383,337.3,375.1z M325.4,424.4c-6.3,10.8-15.5,20.2-25.9,27.1c-22.1,14.6-51.8,10.6-73.4-2.7c-20.7-12.6-40.2-38.5-38.7-63.7c1-16.7,12.6-38.3,31-39.6c2.8-0.2,4.4-2.1,4.8-4.2c2.6,2,6.4,2,7.7-1.9c2.8-8.3,1.6-17.2,1.6-25.8c0-12-0.9-23.9-1-35.8c-0.1-11.4-2-22.7-2-34.1c0-10.2,0.3-20.4-2.7-30.1c7.4-1.5,15.3-0.1,22.7,0c7.3,0.1,15.7-3.6,23-1.9v0.6c0,0.1,0,0.3,0,0.4c0.1,10.9,1.6,21.6,2.7,32.5c1.3,12.6,1.7,24.9,1.4,37.6c-0.3,12.5-0.4,25-0.1,37.5c0.1,6.8,1.6,15.2,4.3,21.5c0.8,1.8,2.2,2.9,3.8,3.2c-0.1,1.9,0.7,3.8,3,4.9c18.1,8.7,40.1,21.8,45.6,42.5C336.1,403.2,330.7,415.3,325.4,424.4z"/><path d="M389.6 322.5c-13.5 2.1-27.8 1-40.8-.5-6.6-.8-21.2-4.4-25.9 2.4-3.9 5.7 4 12.8 8 7.6.4-.1 1-.1 1.1-.2 1.9-.2 3.9-.1 5.8.1 4.2.3 8.4.9 12.6 1.4 13.2 1.4 26.9 2.3 40.1.3C397.4 332.4 396.6 321.4 389.6 322.5zM350.6 303.5c-8.4.1-16.6 1.9-25 2-7.1.1-6.2 11.1.8 11 8.4-.1 16.6-1.9 25-2C358.5 314.4 357.6 303.4 350.6 303.5zM356.5 293.6c-.8-4.4-5.5-5.7-8.5-4.2-.9.1-1.8.1-2.7.1-2.9.1-5.9 0-8.8 0-4.5 0-9.9-.5-14.2 1.3-6.5 2.7-2.9 13.1 3.6 10.4C330.2 299.4 358.4 304.7 356.5 293.6zM363.6 272.5c-14.1-.1-28.9-2-42.4 3.3-6.6 2.6-3 13 3.6 10.4 12.5-4.9 26.5-2.8 39.6-2.7C371.5 283.5 370.6 272.6 363.6 272.5zM345.6 256.5c-9.3.1-18.4 2.1-27.4 4.3-6.9 1.7-3.2 12.1 3.6 10.4 8.1-2 16.2-3.6 24.6-3.7C353.5 267.4 352.6 256.4 345.6 256.5zM342.6 240.5h-24c-7.1 0-6.2 11 .8 11h24C350.5 251.5 349.6 240.5 342.6 240.5zM385 225.6c-22.9-2.4-47.2-5.5-69.9.2-6.9 1.7-3.2 12.1 3.6 10.4 19.1-4.8 40-2.4 59.5-.3 1 1 2.4 1.7 4.1 1.6 2.9-.1 5.3-1.3 6.5-4C390.2 230.4 388.8 226 385 225.6zM346.6 206.5c-10.9 0-22.7-1.2-32.7 3.9-6.3 3.3-.1 12.3 6.2 9.1 7.7-4 19-2.1 27.3-2.1C354.5 217.5 353.6 206.5 346.6 206.5zM339.6 192.5c-4.3 0-8.5.1-12.8.3-3.7.2-8.8.2-11.9 2.6-5.6 4.3.5 13.5 6.2 9.1-.1 0 .5-.2 1.9-.3 2.2-.3 4.5-.4 6.7-.5 3.6-.2 7.2-.2 10.7-.2C347.5 203.5 346.6 192.5 339.6 192.5zM356.6 172.5c-7.4 1.3-15.2.8-22.8 1.2-7.2.4-15.7 1.2-21 6.7-4.9 5.1 3.4 12.4 8.3 7.3 3.3-3.5 11.7-2.9 16.1-3.1 6.7-.3 13.6.1 20.2-1.1C364.3 182.2 363.6 171.3 356.6 172.5zM343.6 159.5c-9.7 0-19.4 0-29 2-3 .6-5.2 2.6-5.1 5.9.1 2.4 1.2 4 2.9 5.7 2.9 3 6.6 1.4 8.1-1.5 7.9-1.1 15.9-1.1 23.9-1.1C351.5 170.5 350.6 159.5 343.6 159.5zM340.6 146.5c-9.1-.1-18.4-1.9-26.7 2.9-6.1 3.6.1 12.7 6.2 9.1 5.8-3.5 14.9-1.2 21.3-1.1C348.5 157.6 347.6 146.6 340.6 146.5zM383.6 123.5c-14.8.1-29.5 2.1-44 5-9.7 1.9-21.4.7-29.7 6.9-5.7 4.2.5 13.4 6.2 9.1 3.5-2.6 8-3 12.3-3.4 5.4-.6 10.7-1.4 16-2.4 13.2-2.5 26.6-4.2 40.1-4.2C391.5 134.4 390.6 123.5 383.6 123.5zM341.6 110.5c-6.1.9-12.4.9-18.6 1.6-4.8.5-12.7 1.2-14.9 6.4-2.6 6.2 6.2 11 9.4 5.7.7-.3 1.5-.5 2.2-.6 2.8-.5 5.7-.8 8.6-1 4.7-.4 9.4-.5 14.1-1.2C349.4 120.4 348.6 109.5 341.6 110.5zM337.2 96.8c-8.4 3.2-18.4-.8-26.3 4.6-5.9 4 .3 13.1 6.2 9.1 2.9-2 7.7-1.4 11.1-1.5 4.3-.1 8.6-.4 12.6-1.9C347.4 104.7 343.8 94.3 337.2 96.8zM331.9 80.7c-8.6 1.5-20.5.8-25.8 8.9-3.9 5.9 6 10.7 9.9 4.9.7-1.1 6.7-1.3 8.1-1.4 4.7-.6 9.4-1.5 14-2.3 7-1.2 13.9-2.5 20.9-3v-11C349.9 77.3 340.9 79.1 331.9 80.7zM335.9 65.4c-2.4 2.1-7.9 2-10.8 2.3-4.5.4-9 .3-13.5.9-7 .9-6.2 11.9.8 11 10.5-1.3 23.1.7 31.7-6.9C349.5 67.9 341.1 60.7 335.9 65.4zM341.6 46.5c-10.4 0-28.2-2.3-34.5 8-3.7 6.1 6.2 10.9 9.9 4.9.9-1.5 9-1.7 11.1-1.8 4.8-.3 9.6-.2 14.4-.1C349.5 57.5 348.6 46.5 341.6 46.5zM363.2 24.8c-4.6 2.1-9.6 2.4-14.6 2.9-4.6.4-9.2 1-13.9 1.1-10 .2-20.7-.6-29.8 4.6-5.2 3-1.5 10 3.5 10h3c2.3 0 3.8-1.2 4.5-2.8 7-1.8 15.4-.7 22.1-.9 9.1-.3 20.4-.7 28.8-4.5C373.2 32.3 369.7 21.9 363.2 24.8z"/></svg>